<?xml version="1.0" encoding="UTF-8"?>
<!DOCTYPE svg PUBLIC "-//W3C//DTD SVG 1.1//EN" "http://www.w3.org/Graphics/SVG/1.1/DTD/svg11.dtd">
<!-- Creator: CorelDRAW -->
<svg xmlns="http://www.w3.org/2000/svg" xml:space="preserve" width="24in" height="24in" version="1.1" style="shape-rendering:geometricPrecision; text-rendering:geometricPrecision; image-rendering:optimizeQuality; fill-rule:evenodd; clip-rule:evenodd"
viewBox="0 0 24000 24000"
 xmlns:xlink="http://www.w3.org/1999/xlink"
 xmlns:xodm="http://www.corel.com/coreldraw/odm/2003">
 <defs>
  <style type="text/css">
   <![CDATA[
    .fil0 {fill:none}
    .fil60 {fill:#00B8F1}
    .fil61 {fill:#00B9F2}
    .fil62 {fill:#00BBF3}
    .fil63 {fill:#00BCF4}
    .fil64 {fill:#00BEF5}
    .fil65 {fill:#00BFF6}
    .fil66 {fill:#00C1F7}
    .fil67 {fill:#00C2F8}
    .fil68 {fill:#00C3F9}
    .fil69 {fill:#00C4FA}
    .fil70 {fill:#00C5FA}
    .fil71 {fill:#00C6FB}
    .fil72 {fill:#00C7FC}
    .fil73 {fill:#00C8FC}
    .fil74 {fill:#00C9FD}
    .fil75 {fill:#00CAFD}
    .fil76 {fill:#00CAFE}
    .fil77 {fill:#00CBFE}
    .fil78 {fill:#00CBFF}
    .fil79 {fill:#00CCFF}
    .fil38 {fill:#018CD3}
    .fil39 {fill:#018ED5}
    .fil40 {fill:#0190D6}
    .fil41 {fill:#0192D8}
    .fil42 {fill:#0195D9}
    .fil43 {fill:#0197DB}
    .fil44 {fill:#0199DC}
    .fil45 {fill:#019BDD}
    .fil46 {fill:#019DDF}
    .fil47 {fill:#019FE0}
    .fil48 {fill:#01A1E2}
    .fil49 {fill:#01A3E3}
    .fil50 {fill:#01A5E5}
    .fil51 {fill:#01A7E6}
    .fil52 {fill:#01A9E7}
    .fil53 {fill:#01ABE9}
    .fil54 {fill:#01ADEA}
    .fil55 {fill:#01AFEB}
    .fil56 {fill:#01B1EC}
    .fil57 {fill:#01B3EE}
    .fil58 {fill:#01B4EF}
    .fil59 {fill:#01B6F0}
    .fil80 {fill:#01CCFE}
    .fil17 {fill:#0261B6}
    .fil18 {fill:#0263B7}
    .fil19 {fill:#0265B8}
    .fil20 {fill:#0266BA}
    .fil21 {fill:#0268BB}
    .fil22 {fill:#026ABC}
    .fil23 {fill:#026CBD}
    .fil24 {fill:#026EBF}
    .fil25 {fill:#0270C0}
    .fil26 {fill:#0272C2}
    .fil27 {fill:#0274C3}
    .fil28 {fill:#0276C4}
    .fil29 {fill:#0278C6}
    .fil30 {fill:#027BC7}
    .fil31 {fill:#027DC9}
    .fil32 {fill:#027FCA}
    .fil33 {fill:#0281CC}
    .fil34 {fill:#0283CD}
    .fil35 {fill:#0285CF}
    .fil36 {fill:#0287D0}
    .fil37 {fill:#028AD2}
    .fil82 {fill:#02CBFC}
    .fil81 {fill:#02CCFD}
    .fil219 {fill:#034AA6}
    .fil1 {fill:#034DA8}
    .fil2 {fill:#034EA9}
    .fil3 {fill:#034FA9}
    .fil4 {fill:#034FAA}
    .fil5 {fill:#0350AA}
    .fil6 {fill:#0351AB}
    .fil7 {fill:#0353AC}
    .fil8 {fill:#0354AD}
    .fil9 {fill:#0355AE}
    .fil10 {fill:#0356AE}
    .fil11 {fill:#0358AF}
    .fil12 {fill:#0359B0}
    .fil13 {fill:#035BB1}
    .fil14 {fill:#035CB2}
    .fil15 {fill:#035EB4}
    .fil16 {fill:#035FB5}
    .fil220 {fill:#03BFC0}
    .fil83 {fill:#03CBFC}
    .fil84 {fill:#04CBFA}
    .fil85 {fill:#06CAF9}
    .fil86 {fill:#07CAF8}
    .fil87 {fill:#08CAF7}
    .fil88 {fill:#0AC9F5}
    .fil89 {fill:#0BC9F3}
    .fil90 {fill:#0DC8F1}
    .fil91 {fill:#0FC8F0}
    .fil92 {fill:#11C7ED}
    .fil93 {fill:#13C7EB}
    .fil94 {fill:#15C6E9}
    .fil95 {fill:#18C5E7}
    .fil96 {fill:#1AC5E4}
    .fil97 {fill:#1DC4E2}
    .fil98 {fill:#1FC3DF}
    .fil99 {fill:#22C2DC}
    .fil100 {fill:#24C2DA}
    .fil101 {fill:#27C1D7}
    .fil102 {fill:#2AC0D4}
    .fil103 {fill:#2DBFD1}
    .fil104 {fill:#30BECE}
    .fil105 {fill:#33BDCA}
    .fil106 {fill:#36BCC7}
    .fil107 {fill:#3ABBC4}
    .fil108 {fill:#3DBAC1}
    .fil109 {fill:#40B9BD}
    .fil110 {fill:#44B8BA}
    .fil111 {fill:#47B7B6}
    .fil112 {fill:#4BB6B3}
    .fil113 {fill:#4EB5AF}
    .fil114 {fill:#52B4AB}
    .fil115 {fill:#55B3A8}
    .fil116 {fill:#59B2A4}
    .fil117 {fill:#5CB1A0}
    .fil118 {fill:#60B09C}
    .fil119 {fill:#64AE99}
    .fil120 {fill:#67AD95}
    .fil121 {fill:#6BAC91}
    .fil122 {fill:#6FAB8D}
    .fil123 {fill:#73AA89}
    .fil124 {fill:#76A985}
    .fil125 {fill:#7AA782}
    .fil126 {fill:#7EA67E}
    .fil127 {fill:#82A57A}
    .fil128 {fill:#85A476}
    .fil129 {fill:#89A272}
    .fil130 {fill:#8DA16E}
    .fil131 {fill:#90A06B}
    .fil132 {fill:#949F67}
    .fil133 {fill:#989E63}
    .fil134 {fill:#9B9C5F}
    .fil135 {fill:#9F9B5C}
    .fil136 {fill:#A39A58}
    .fil137 {fill:#A69954}
    .fil138 {fill:#AA9751}
    .fil139 {fill:#AD964D}
    .fil140 {fill:#B0954A}
    .fil141 {fill:#B49446}
    .fil142 {fill:#B79343}
    .fil143 {fill:#BA913F}
    .fil144 {fill:#BD903C}
    .fil145 {fill:#C18F39}
    .fil146 {fill:#C48E36}
    .fil147 {fill:#C78D33}
    .fil148 {fill:#CA8B30}
    .fil149 {fill:#CC8A2D}
    .fil150 {fill:#CF892A}
    .fil151 {fill:#D28827}
    .fil152 {fill:#D48724}
    .fil153 {fill:#D78622}
    .fil221 {fill:#D95103}
    .fil154 {fill:#D9851F}
    .fil218 {fill:#DA5203}
    .fil217 {fill:#DB5203}
    .fil216 {fill:#DC5303}
    .fil155 {fill:#DC841D}
    .fil215 {fill:#DD5403}
    .fil214 {fill:#DE5403}
    .fil156 {fill:#DE831A}
    .fil213 {fill:#DF5503}
    .fil212 {fill:#E05603}
    .fil157 {fill:#E08218}
    .fil211 {fill:#E15703}
    .fil210 {fill:#E25703}
    .fil209 {fill:#E25803}
    .fil158 {fill:#E28116}
    .fil208 {fill:#E35803}
    .fil207 {fill:#E35903}
    .fil206 {fill:#E45903}
    .fil205 {fill:#E45A03}
    .fil159 {fill:#E48014}
    .fil204 {fill:#E55A03}
    .fil203 {fill:#E55B03}
    .fil202 {fill:#E65B03}
    .fil201 {fill:#E65C03}
    .fil160 {fill:#E67F12}
    .fil200 {fill:#E75C03}
    .fil199 {fill:#E75D03}
    .fil198 {fill:#E85D03}
    .fil161 {fill:#E87E10}
    .fil197 {fill:#E95E03}
    .fil196 {fill:#E95F03}
    .fil162 {fill:#E97D0F}
    .fil195 {fill:#EA5F03}
    .fil194 {fill:#EA6003}
    .fil193 {fill:#EB6104}
    .fil163 {fill:#EB7C0D}
    .fil192 {fill:#EC6204}
    .fil191 {fill:#EC6304}
    .fil164 {fill:#EC7B0C}
    .fil190 {fill:#ED6304}
    .fil189 {fill:#ED6404}
    .fil188 {fill:#ED6504}
    .fil165 {fill:#ED7A0A}
    .fil187 {fill:#EE6504}
    .fil186 {fill:#EE6604}
    .fil166 {fill:#EE7909}
    .fil185 {fill:#EF6704}
    .fil184 {fill:#EF6804}
    .fil167 {fill:#EF7808}
    .fil183 {fill:#F06904}
    .fil182 {fill:#F06A04}
    .fil181 {fill:#F06B04}
    .fil168 {fill:#F07807}
    .fil180 {fill:#F16C04}
    .fil179 {fill:#F16D04}
    .fil178 {fill:#F16E04}
    .fil177 {fill:#F16F05}
    .fil170 {fill:#F17606}
    .fil169 {fill:#F17707}
    .fil176 {fill:#F27005}
    .fil175 {fill:#F27105}
    .fil174 {fill:#F27205}
    .fil173 {fill:#F27305}
    .fil172 {fill:#F27405}
    .fil171 {fill:#F27505}
   ]]>
  </style>
     <clipPath id="id0">
      <path d="M20799.18 2104.63l3.43 1191.76 1160.2 0 0 871.87 -1160.2 0 0 1184.78 -882.38 0 0 -1184.78 -1139.05 0 0 -871.87 1139.05 0 0 -1191.76 878.95 0z"/>
     </clipPath>
    <clipPath id="id1">
     <path d="M20799.18 2104.63l3.43 1191.76 1160.2 0 0 871.87 -1160.2 0 0 1184.78 -882.38 0 0 -1184.78 -1139.05 0 0 -871.87 1139.05 0 0 -1191.76 878.95 0z"/>
    </clipPath>
     <clipPath id="id2">
      <path d="M15914.43 17980.75l3642.13 3658.5c362.03,-984.63 1104.82,-1785.06 2049.81,-2223.65l-3555.39 -3571.58c2559.85,-3857.97 2163.64,-8526.91 -1250.83,-11814.11 -389.85,-375.3 -1098.09,-867.35 -1569.59,-1152.28 -1103.19,-666.42 -2776.42,-1228.29 -4274.55,-1228.29 -2208.56,0 -3725.23,515.5 -5330.46,1578.5l-1294.11 1046.81 -1025.18 1261.2c-1079.91,1626.69 -1600.13,3130.09 -1600.13,5361.92 0,1879.43 762.97,3661.77 1719.24,5036.98 897.71,1291.2 2344.57,2388.75 3801.96,3002.8 2952.8,1244.29 6012.33,833.89 8687.11,-956.81zm762.06 -7579.93c0,1046.45 -147.1,1740.69 -450.4,2502.21 -166.74,417.67 -288.2,606.6 -506.04,963.72 -946.26,1550.5 -2958.62,2752.96 -4768.41,2752.96 -1745.24,0 -3307.92,-577.5 -4490.93,-1760.52 -370.58,-370.58 -867.71,-1080.09 -1107.91,-1559.59 -310.57,-620.24 -598.06,-1486.49 -598.06,-2418.57 0,-1852.89 488.04,-3214.46 1728.33,-4454.74 1242.83,-1243.02 2604.04,-1728.33 4459.48,-1728.33 1245.2,0 2771.87,602.6 3597.22,1374.48l410.58 351.67c932.08,932.08 1726.15,2633.68 1726.15,3976.7z"/>
     </clipPath>
     <clipPath id="id3">
      <path d="M20265.61 22350.65c276.52,-1033.89 1039.31,-1868.87 2028.28,-2245.36l-480.15 -482.43c-945.1,438.55 -1687.78,1239.09 -2049.95,2223.69l501.83 504.09z"/>
     </clipPath>
 </defs>
 <g id="Layer_x0020_1">
  <metadata id="CorelCorpID_0Corel-Layer"/>
  <rect class="fil0" width="24000" height="24000"/>
  <g id="_1387786291296">
   <g>
    <g style="clip-path:url(#id0)">
     <polygon class="fil1" points="20439.77,1629.83 20449.24,1640.19 18281.39,3621.36 18271.91,3611 "/>
     <polygon id="_1" class="fil2" points="20445,1635.55 20457.72,1649.47 18289.87,3630.64 18277.15,3616.72 "/>
     <polygon id="_2" class="fil3" points="20453.48,1644.83 20466.2,1658.75 18298.35,3639.92 18285.63,3626 "/>
     <polygon id="_3" class="fil4" points="20461.96,1654.11 20474.69,1668.03 18306.83,3649.2 18294.11,3635.28 "/>
     <polygon id="_4" class="fil5" points="20470.44,1663.39 20483.17,1677.31 18315.31,3658.48 18302.59,3644.56 "/>
     <polygon id="_5" class="fil6" points="20478.93,1672.67 20491.65,1686.59 18323.79,3667.76 18311.07,3653.84 "/>
     <polygon id="_6" class="fil7" points="20487.41,1681.95 20500.13,1695.87 18332.27,3677.04 18319.55,3663.12 "/>
     <polygon id="_7" class="fil8" points="20495.89,1691.23 20508.61,1705.15 18340.75,3686.32 18328.03,3672.4 "/>
     <polygon id="_8" class="fil9" points="20504.37,1700.51 20517.09,1714.43 18349.23,3695.6 18336.51,3681.68 "/>
     <polygon id="_9" class="fil10" points="20512.85,1709.79 20525.57,1723.71 18357.71,3704.88 18344.99,3690.96 "/>
     <polygon id="_10" class="fil11" points="20521.33,1719.07 20534.05,1732.99 18366.19,3714.16 18353.47,3700.24 "/>
     <polygon id="_11" class="fil12" points="20529.81,1728.35 20542.53,1742.27 18374.67,3723.44 18361.95,3709.52 "/>
     <polygon id="_12" class="fil13" points="20538.29,1737.63 20551.01,1751.55 18383.15,3732.72 18370.43,3718.8 "/>
     <polygon id="_13" class="fil14" points="20546.77,1746.91 20559.49,1760.83 18391.63,3742 18378.91,3728.08 "/>
     <polygon id="_14" class="fil15" points="20555.25,1756.19 20567.97,1770.11 18400.11,3751.28 18387.39,3737.36 "/>
     <polygon id="_15" class="fil16" points="20563.73,1765.46 20576.45,1779.39 18408.59,3760.56 18395.87,3746.64 "/>
     <polygon id="_16" class="fil17" points="20572.21,1774.74 20584.93,1788.67 18417.07,3769.83 18404.35,3755.92 "/>
     <polygon id="_17" class="fil18" points="20580.69,1784.02 20593.41,1797.94 18425.56,3779.11 18412.83,3765.2 "/>
     <polygon id="_18" class="fil19" points="20589.17,1793.3 20601.89,1807.22 18434.04,3788.39 18421.31,3774.48 "/>
     <polygon id="_19" class="fil20" points="20597.65,1802.58 20610.37,1816.5 18442.52,3797.67 18429.8,3783.76 "/>
     <polygon id="_20" class="fil21" points="20606.13,1811.86 20618.85,1825.78 18451,3806.95 18438.28,3793.04 "/>
     <polygon id="_21" class="fil22" points="20614.61,1821.14 20627.33,1835.06 18459.48,3816.23 18446.76,3802.31 "/>
     <polygon id="_22" class="fil23" points="20623.09,1830.42 20635.81,1844.34 18467.96,3825.51 18455.24,3811.59 "/>
     <polygon id="_23" class="fil24" points="20631.57,1839.7 20644.3,1853.62 18476.44,3834.79 18463.72,3820.87 "/>
     <polygon id="_24" class="fil25" points="20640.06,1848.98 20652.78,1862.9 18484.92,3844.07 18472.2,3830.15 "/>
     <polygon id="_25" class="fil26" points="20648.54,1858.26 20661.26,1872.18 18493.4,3853.35 18480.68,3839.43 "/>
     <polygon id="_26" class="fil27" points="20657.02,1867.54 20669.74,1881.46 18501.88,3862.63 18489.16,3848.71 "/>
     <polygon id="_27" class="fil28" points="20665.5,1876.82 20678.22,1890.74 18510.36,3871.91 18497.64,3857.99 "/>
     <polygon id="_28" class="fil29" points="20673.98,1886.1 20686.7,1900.02 18518.84,3881.19 18506.12,3867.27 "/>
     <polygon id="_29" class="fil30" points="20682.46,1895.38 20695.18,1909.3 18527.32,3890.47 18514.6,3876.55 "/>
     <polygon id="_30" class="fil31" points="20690.94,1904.66 20703.66,1918.58 18535.8,3899.75 18523.08,3885.83 "/>
     <polygon id="_31" class="fil32" points="20699.42,1913.94 20712.14,1927.86 18544.28,3909.03 18531.56,3895.11 "/>
     <polygon id="_32" class="fil33" points="20707.9,1923.22 20720.62,1937.14 18552.76,3918.31 18540.04,3904.39 "/>
     <polygon id="_33" class="fil34" points="20716.38,1932.5 20729.1,1946.42 18561.24,3927.59 18548.52,3913.67 "/>
     <polygon id="_34" class="fil35" points="20724.86,1941.78 20737.58,1955.7 18569.72,3936.87 18557,3922.95 "/>
     <polygon id="_35" class="fil36" points="20733.34,1951.06 20746.06,1964.98 18578.2,3946.15 18565.48,3932.23 "/>
     <polygon id="_36" class="fil37" points="20741.82,1960.34 20754.54,1974.26 18586.69,3955.43 18573.96,3941.51 "/>
     <polygon id="_37" class="fil38" points="20750.3,1969.62 20763.02,1983.54 18595.17,3964.71 18582.44,3950.79 "/>
     <polygon id="_38" class="fil39" points="20758.78,1978.9 20771.5,1992.81 18603.65,3973.99 18590.93,3960.07 "/>
     <polygon id="_39" class="fil40" points="20767.26,1988.18 20779.98,2002.09 18612.13,3983.27 18599.41,3969.35 "/>
     <polygon id="_40" class="fil41" points="20775.74,1997.46 20788.46,2011.38 18620.61,3992.55 18607.89,3978.63 "/>
     <polygon id="_41" class="fil42" points="20784.22,2006.74 20796.94,2020.66 18629.09,4001.83 18616.37,3987.91 "/>
     <polygon id="_42" class="fil43" points="20792.7,2016.02 20805.43,2029.94 18637.57,4011.11 18624.85,3997.19 "/>
     <polygon id="_43" class="fil44" points="20801.19,2025.3 20813.91,2039.22 18646.05,4020.39 18633.33,4006.47 "/>
     <polygon id="_44" class="fil45" points="20809.67,2034.57 20822.39,2048.5 18654.53,4029.67 18641.81,4015.75 "/>
     <polygon id="_45" class="fil46" points="20818.15,2043.85 20830.87,2057.78 18663.01,4038.94 18650.29,4025.03 "/>
     <polygon id="_46" class="fil47" points="20826.63,2053.13 20839.35,2067.06 18671.49,4048.22 18658.77,4034.31 "/>
     <polygon id="_47" class="fil48" points="20835.11,2062.41 20847.83,2076.33 18679.97,4057.5 18667.25,4043.59 "/>
     <polygon id="_48" class="fil49" points="20843.59,2071.69 20856.31,2085.61 18688.45,4066.78 18675.73,4052.87 "/>
     <polygon id="_49" class="fil50" points="20852.07,2080.97 20864.79,2094.89 18696.93,4076.06 18684.21,4062.15 "/>
     <polygon id="_50" class="fil51" points="20860.55,2090.25 20873.27,2104.17 18705.41,4085.34 18692.69,4071.43 "/>
     <polygon id="_51" class="fil52" points="20869.03,2099.53 20881.75,2113.45 18713.89,4094.62 18701.17,4080.7 "/>
     <polygon id="_52" class="fil53" points="20877.51,2108.81 20890.23,2122.73 18722.37,4103.9 18709.65,4089.98 "/>
     <polygon id="_53" class="fil54" points="20885.99,2118.09 20898.71,2132.01 18730.85,4113.18 18718.13,4099.26 "/>
     <polygon id="_54" class="fil55" points="20894.47,2127.37 20907.19,2141.29 18739.33,4122.46 18726.61,4108.54 "/>
     <polygon id="_55" class="fil56" points="20902.95,2136.65 20915.67,2150.57 18747.81,4131.74 18735.09,4117.82 "/>
     <polygon id="_56" class="fil57" points="20911.43,2145.93 20924.15,2159.85 18756.3,4141.02 18743.57,4127.1 "/>
     <polygon id="_57" class="fil58" points="20919.91,2155.21 20932.63,2169.13 18764.78,4150.3 18752.06,4136.38 "/>
     <polygon id="_58" class="fil59" points="20928.39,2164.49 20941.11,2178.41 18773.26,4159.58 18760.54,4145.66 "/>
     <polygon id="_59" class="fil60" points="20936.87,2173.77 20949.59,2187.69 18781.74,4168.86 18769.02,4154.94 "/>
     <polygon id="_60" class="fil61" points="20945.35,2183.05 20958.07,2196.97 18790.22,4178.14 18777.5,4164.22 "/>
     <polygon id="_61" class="fil62" points="20953.83,2192.33 20966.56,2206.25 18798.7,4187.42 18785.98,4173.5 "/>
     <polygon id="_62" class="fil63" points="20962.31,2201.61 20975.04,2215.53 18807.18,4196.7 18794.46,4182.78 "/>
     <polygon id="_63" class="fil64" points="20970.8,2210.89 20983.52,2224.81 18815.66,4205.98 18802.94,4192.06 "/>
     <polygon id="_64" class="fil65" points="20979.28,2220.17 20992,2234.09 18824.14,4215.26 18811.42,4201.34 "/>
     <polygon id="_65" class="fil66" points="20987.76,2229.45 21000.48,2243.37 18832.62,4224.54 18819.9,4210.62 "/>
     <polygon id="_66" class="fil67" points="20996.24,2238.73 21008.96,2252.65 18841.1,4233.82 18828.38,4219.9 "/>
     <polygon id="_67" class="fil68" points="21004.72,2248.01 21017.44,2261.93 18849.58,4243.1 18836.86,4229.18 "/>
     <polygon id="_68" class="fil69" points="21013.2,2257.29 21025.92,2271.2 18858.06,4252.38 18845.34,4238.46 "/>
     <polygon id="_69" class="fil70" points="21021.68,2266.57 21034.4,2280.48 18866.54,4261.66 18853.82,4247.74 "/>
     <polygon id="_70" class="fil71" points="21030.16,2275.85 21042.88,2289.76 18875.02,4270.94 18862.3,4257.02 "/>
     <polygon id="_71" class="fil72" points="21038.64,2285.13 21051.36,2299.04 18883.5,4280.22 18870.78,4266.3 "/>
     <polygon id="_72" class="fil73" points="21047.12,2294.41 21059.84,2308.33 18891.98,4289.5 18879.26,4275.57 "/>
     <polygon id="_73" class="fil74" points="21055.6,2303.69 21068.32,2317.61 18900.46,4298.78 18887.74,4284.86 "/>
     <polygon id="_74" class="fil75" points="21064.08,2312.96 21076.8,2326.89 18908.94,4308.06 18896.22,4294.14 "/>
     <polygon id="_75" class="fil76" points="21072.56,2322.24 21085.28,2336.17 18917.43,4317.33 18904.7,4303.42 "/>
     <polygon id="_76" class="fil77" points="21081.04,2331.52 21093.76,2345.44 18925.91,4326.61 18913.19,4312.7 "/>
     <polygon id="_77" class="fil77" points="21089.52,2340.8 21102.24,2354.72 18934.39,4335.89 18921.67,4321.98 "/>
     <polygon id="_78" class="fil78" points="21098,2350.08 21110.72,2364 18942.87,4345.17 18930.15,4331.26 "/>
     <polygon id="_79" class="fil79" points="21106.48,2359.36 21119.2,2373.28 18951.35,4354.45 18938.63,4340.54 "/>
     <polygon id="_80" class="fil79" points="21114.96,2368.64 21127.69,2382.56 18959.83,4363.73 18947.11,4349.81 "/>
     <polygon id="_81" class="fil79" points="21123.44,2377.92 21136.17,2391.84 18968.31,4373.01 18955.59,4359.09 "/>
     <polygon id="_82" class="fil79" points="21131.93,2387.2 21144.65,2401.12 18976.79,4382.29 18964.07,4368.37 "/>
     <polygon id="_83" class="fil79" points="21140.41,2396.48 21153.13,2410.4 18985.27,4391.57 18972.55,4377.65 "/>
     <polygon id="_84" class="fil80" points="21148.89,2405.76 21161.61,2419.68 18993.75,4400.85 18981.03,4386.93 "/>
     <polygon id="_85" class="fil80" points="21157.37,2415.04 21170.09,2428.96 19002.23,4410.13 18989.51,4396.21 "/>
     <polygon id="_86" class="fil81" points="21165.85,2424.32 21178.57,2438.24 19010.71,4419.41 18997.99,4405.49 "/>
     <polygon id="_87" class="fil82" points="21174.33,2433.6 21187.05,2447.52 19019.19,4428.69 19006.47,4414.77 "/>
     <polygon id="_88" class="fil83" points="21182.81,2442.88 21195.53,2456.8 19027.67,4437.97 19014.95,4424.05 "/>
     <polygon id="_89" class="fil84" points="21191.29,2452.16 21204.01,2466.08 19036.15,4447.25 19023.43,4433.33 "/>
     <polygon id="_90" class="fil85" points="21199.77,2461.44 21212.49,2475.36 19044.63,4456.53 19031.91,4442.61 "/>
     <polygon id="_91" class="fil86" points="21208.25,2470.72 21220.97,2484.64 19053.11,4465.81 19040.39,4451.89 "/>
     <polygon id="_92" class="fil87" points="21216.73,2480 21229.45,2493.92 19061.59,4475.09 19048.87,4461.17 "/>
     <polygon id="_93" class="fil88" points="21225.21,2489.28 21237.93,2503.2 19070.07,4484.37 19057.35,4470.45 "/>
     <polygon id="_94" class="fil89" points="21233.69,2498.56 21246.41,2512.48 19078.56,4493.65 19065.83,4479.73 "/>
     <polygon id="_95" class="fil90" points="21242.17,2507.84 21254.89,2521.76 19087.04,4502.93 19074.31,4489.01 "/>
     <polygon id="_96" class="fil91" points="21250.65,2517.12 21263.37,2531.04 19095.52,4512.21 19082.8,4498.29 "/>
     <polygon id="_97" class="fil92" points="21259.13,2526.4 21271.85,2540.31 19104,4521.49 19091.28,4507.57 "/>
     <polygon id="_98" class="fil93" points="21267.61,2535.68 21280.33,2549.59 19112.48,4530.77 19099.76,4516.85 "/>
     <polygon id="_99" class="fil94" points="21276.09,2544.96 21288.81,2558.87 19120.96,4540.05 19108.24,4526.13 "/>
     <polygon id="_100" class="fil95" points="21284.57,2554.24 21297.3,2568.15 19129.44,4549.33 19116.72,4535.41 "/>
     <polygon id="_101" class="fil96" points="21293.06,2563.52 21305.78,2577.43 19137.92,4558.61 19125.2,4544.69 "/>
     <polygon id="_102" class="fil97" points="21301.54,2572.8 21314.26,2586.71 19146.4,4567.89 19133.68,4553.96 "/>
     <polygon id="_103" class="fil98" points="21310.02,2582.07 21322.74,2596 19154.88,4577.17 19142.16,4563.24 "/>
     <polygon id="_104" class="fil99" points="21318.5,2591.35 21331.22,2605.28 19163.36,4586.44 19150.64,4572.52 "/>
     <polygon id="_105" class="fil100" points="21326.98,2600.63 21339.7,2614.56 19171.84,4595.72 19159.12,4581.81 "/>
     <polygon id="_106" class="fil101" points="21335.46,2609.91 21348.18,2623.83 19180.32,4605 19167.6,4591.09 "/>
     <polygon id="_107" class="fil102" points="21343.94,2619.19 21356.66,2633.11 19188.8,4614.28 19176.08,4600.37 "/>
     <polygon id="_108" class="fil103" points="21352.42,2628.47 21365.14,2642.39 19197.28,4623.56 19184.56,4609.65 "/>
     <polygon id="_109" class="fil104" points="21360.9,2637.75 21373.62,2651.67 19205.76,4632.84 19193.04,4618.93 "/>
     <polygon id="_110" class="fil105" points="21369.38,2647.03 21382.1,2660.95 19214.24,4642.12 19201.52,4628.2 "/>
     <polygon id="_111" class="fil106" points="21377.86,2656.31 21390.58,2670.23 19222.72,4651.4 19210,4637.48 "/>
     <polygon id="_112" class="fil107" points="21386.34,2665.59 21399.06,2679.51 19231.2,4660.68 19218.48,4646.76 "/>
     <polygon id="_113" class="fil108" points="21394.82,2674.87 21407.54,2688.79 19239.69,4669.96 19226.96,4656.04 "/>
     <polygon id="_114" class="fil109" points="21403.3,2684.15 21416.02,2698.07 19248.17,4679.24 19235.44,4665.32 "/>
     <polygon id="_115" class="fil110" points="21411.78,2693.43 21424.5,2707.35 19256.65,4688.52 19243.93,4674.6 "/>
     <polygon id="_116" class="fil111" points="21420.26,2702.71 21432.98,2716.63 19265.13,4697.8 19252.41,4683.88 "/>
     <polygon id="_117" class="fil112" points="21428.74,2711.99 21441.46,2725.91 19273.61,4707.08 19260.89,4693.16 "/>
     <polygon id="_118" class="fil113" points="21437.22,2721.27 21449.94,2735.19 19282.09,4716.36 19269.37,4702.44 "/>
     <polygon id="_119" class="fil114" points="21445.7,2730.55 21458.43,2744.47 19290.57,4725.64 19277.85,4711.72 "/>
     <polygon id="_120" class="fil115" points="21454.19,2739.83 21466.91,2753.75 19299.05,4734.92 19286.33,4721 "/>
     <polygon id="_121" class="fil116" points="21462.67,2749.11 21475.39,2763.03 19307.53,4744.2 19294.81,4730.28 "/>
     <polygon id="_122" class="fil117" points="21471.15,2758.39 21483.87,2772.31 19316.01,4753.48 19303.29,4739.56 "/>
     <polygon id="_123" class="fil118" points="21479.63,2767.67 21492.35,2781.59 19324.49,4762.76 19311.77,4748.84 "/>
     <polygon id="_124" class="fil119" points="21488.11,2776.95 21500.83,2790.87 19332.97,4772.04 19320.25,4758.12 "/>
     <polygon id="_125" class="fil120" points="21496.59,2786.23 21509.31,2800.15 19341.45,4781.32 19328.73,4767.4 "/>
     <polygon id="_126" class="fil121" points="21505.07,2795.51 21517.79,2809.43 19349.93,4790.6 19337.21,4776.68 "/>
     <polygon id="_127" class="fil122" points="21513.55,2804.79 21526.27,2818.7 19358.41,4799.88 19345.69,4785.96 "/>
     <polygon id="_128" class="fil123" points="21522.03,2814.07 21534.75,2827.98 19366.89,4809.16 19354.17,4795.24 "/>
     <polygon id="_129" class="fil124" points="21530.51,2823.35 21543.23,2837.26 19375.37,4818.44 19362.65,4804.52 "/>
     <polygon id="_130" class="fil125" points="21538.99,2832.63 21551.71,2846.54 19383.85,4827.72 19371.13,4813.8 "/>
     <polygon id="_131" class="fil126" points="21547.47,2841.91 21560.19,2855.82 19392.33,4837 19379.61,4823.07 "/>
     <polygon id="_132" class="fil127" points="21555.95,2851.19 21568.67,2865.1 19400.81,4846.28 19388.09,4832.35 "/>
     <polygon id="_133" class="fil128" points="21564.43,2860.46 21577.15,2874.38 19409.3,4855.56 19396.57,4841.63 "/>
     <polygon id="_134" class="fil129" points="21572.91,2869.74 21585.63,2883.66 19417.78,4864.83 19405.06,4850.91 "/>
     <polygon id="_135" class="fil130" points="21581.39,2879.02 21594.11,2892.94 19426.26,4874.11 19413.54,4860.19 "/>
     <polygon id="_136" class="fil131" points="21589.87,2888.3 21602.59,2902.22 19434.74,4883.39 19422.02,4869.48 "/>
     <polygon id="_137" class="fil132" points="21598.35,2897.58 21611.07,2911.5 19443.22,4892.67 19430.5,4878.76 "/>
     <polygon id="_138" class="fil133" points="21606.83,2906.86 21619.56,2920.78 19451.7,4901.95 19438.98,4888.04 "/>
     <polygon id="_139" class="fil134" points="21615.31,2916.14 21628.04,2930.06 19460.18,4911.23 19447.46,4897.31 "/>
     <polygon id="_140" class="fil135" points="21623.8,2925.42 21636.52,2939.34 19468.66,4920.51 19455.94,4906.59 "/>
     <polygon id="_141" class="fil136" points="21632.28,2934.7 21645,2948.62 19477.14,4929.79 19464.42,4915.87 "/>
     <polygon id="_142" class="fil137" points="21640.76,2943.98 21653.48,2957.9 19485.62,4939.07 19472.9,4925.15 "/>
     <polygon id="_143" class="fil138" points="21649.24,2953.26 21661.96,2967.18 19494.1,4948.35 19481.38,4934.43 "/>
     <polygon id="_144" class="fil139" points="21657.72,2962.54 21670.44,2976.46 19502.58,4957.63 19489.86,4943.71 "/>
     <polygon id="_145" class="fil140" points="21666.2,2971.82 21678.92,2985.74 19511.06,4966.91 19498.34,4952.99 "/>
     <polygon id="_146" class="fil141" points="21674.68,2981.1 21687.4,2995.02 19519.54,4976.19 19506.82,4962.27 "/>
     <polygon id="_147" class="fil142" points="21683.16,2990.38 21695.88,3004.3 19528.02,4985.47 19515.3,4971.55 "/>
     <polygon id="_148" class="fil143" points="21691.64,2999.66 21704.36,3013.58 19536.5,4994.75 19523.78,4980.83 "/>
     <polygon id="_149" class="fil144" points="21700.12,3008.94 21712.84,3022.86 19544.98,5004.03 19532.26,4990.11 "/>
     <polygon id="_150" class="fil145" points="21708.6,3018.22 21721.32,3032.14 19553.46,5013.31 19540.74,4999.39 "/>
     <polygon id="_151" class="fil146" points="21717.08,3027.5 21729.8,3041.42 19561.94,5022.59 19549.22,5008.67 "/>
     <polygon id="_152" class="fil147" points="21725.56,3036.78 21738.28,3050.7 19570.43,5031.87 19557.7,5017.95 "/>
     <polygon id="_153" class="fil148" points="21734.04,3046.06 21746.76,3059.98 19578.91,5041.15 19566.19,5027.23 "/>
     <polygon id="_154" class="fil149" points="21742.52,3055.34 21755.24,3069.26 19587.39,5050.43 19574.67,5036.51 "/>
     <polygon id="_155" class="fil150" points="21751,3064.62 21763.72,3078.54 19595.87,5059.71 19583.15,5045.79 "/>
     <polygon id="_156" class="fil151" points="21759.48,3073.9 21772.2,3087.81 19604.35,5068.99 19591.63,5055.07 "/>
     <polygon id="_157" class="fil152" points="21767.96,3083.18 21780.69,3097.09 19612.83,5078.27 19600.11,5064.35 "/>
     <polygon id="_158" class="fil153" points="21776.44,3092.46 21789.17,3106.37 19621.31,5087.55 19608.59,5073.63 "/>
     <polygon id="_159" class="fil154" points="21784.93,3101.74 21797.65,3115.65 19629.79,5096.83 19617.07,5082.91 "/>
     <polygon id="_160" class="fil155" points="21793.41,3111.02 21806.13,3124.93 19638.27,5106.11 19625.55,5092.19 "/>
     <polygon id="_161" class="fil156" points="21801.89,3120.3 21814.61,3134.21 19646.75,5115.39 19634.03,5101.46 "/>
     <polygon id="_162" class="fil157" points="21810.37,3129.57 21823.09,3143.49 19655.23,5124.67 19642.51,5110.74 "/>
     <polygon id="_163" class="fil158" points="21818.85,3138.85 21831.57,3152.77 19663.71,5133.94 19650.99,5120.02 "/>
     <polygon id="_164" class="fil159" points="21827.33,3148.13 21840.05,3162.05 19672.19,5143.22 19659.47,5129.3 "/>
     <polygon id="_165" class="fil160" points="21835.81,3157.41 21848.53,3171.33 19680.67,5152.5 19667.95,5138.58 "/>
     <polygon id="_166" class="fil161" points="21844.29,3166.69 21857.01,3180.61 19689.15,5161.78 19676.43,5147.86 "/>
     <polygon id="_167" class="fil162" points="21852.77,3175.97 21865.49,3189.89 19697.63,5171.06 19684.91,5157.14 "/>
     <polygon id="_168" class="fil163" points="21861.25,3185.25 21873.97,3199.17 19706.11,5180.34 19693.39,5166.43 "/>
     <polygon id="_169" class="fil164" points="21869.73,3194.53 21882.45,3208.45 19714.59,5189.62 19701.87,5175.7 "/>
     <polygon id="_170" class="fil165" points="21878.21,3203.81 21890.93,3217.73 19723.07,5198.9 19710.35,5184.98 "/>
     <polygon id="_171" class="fil166" points="21886.69,3213.09 21899.41,3227.01 19731.56,5208.18 19718.83,5194.26 "/>
     <polygon id="_172" class="fil167" points="21895.17,3222.37 21907.89,3236.29 19740.04,5217.46 19727.31,5203.54 "/>
     <polygon id="_173" class="fil168" points="21903.65,3231.65 21916.37,3245.57 19748.52,5226.74 19735.8,5212.82 "/>
     <polygon id="_174" class="fil169" points="21912.13,3240.93 21924.85,3254.85 19757,5236.02 19744.28,5222.1 "/>
     <polygon id="_175" class="fil170" points="21920.61,3250.21 21933.33,3264.13 19765.48,5245.3 19752.76,5231.38 "/>
     <polygon id="_176" class="fil171" points="21929.09,3259.49 21941.81,3273.41 19773.96,5254.58 19761.24,5240.66 "/>
     <polygon id="_177" class="fil171" points="21937.57,3268.77 21950.3,3282.69 19782.44,5263.86 19769.72,5249.94 "/>
     <polygon id="_178" class="fil172" points="21946.06,3278.05 21958.78,3291.97 19790.92,5273.14 19778.2,5259.22 "/>
     <polygon id="_179" class="fil173" points="21954.54,3287.33 21967.26,3301.25 19799.4,5282.42 19786.68,5268.5 "/>
     <polygon id="_180" class="fil174" points="21963.02,3296.61 21975.74,3310.53 19807.88,5291.7 19795.16,5277.78 "/>
     <polygon id="_181" class="fil175" points="21971.5,3305.89 21984.22,3319.81 19816.36,5300.98 19803.64,5287.06 "/>
     <polygon id="_182" class="fil175" points="21979.98,3315.17 21992.7,3329.09 19824.84,5310.26 19812.12,5296.34 "/>
     <polygon id="_183" class="fil176" points="21988.46,3324.44 22001.18,3338.37 19833.32,5319.54 19820.6,5305.62 "/>
     <polygon id="_184" class="fil177" points="21996.94,3333.73 22009.66,3347.65 19841.8,5328.82 19829.08,5314.9 "/>
     <polygon id="_185" class="fil178" points="22005.42,3343.01 22018.14,3356.93 19850.28,5338.1 19837.56,5324.18 "/>
     <polygon id="_186" class="fil179" points="22013.9,3352.29 22026.62,3366.2 19858.76,5347.38 19846.04,5333.46 "/>
     <polygon id="_187" class="fil180" points="22022.38,3361.57 22035.1,3375.48 19867.24,5356.66 19854.52,5342.74 "/>
     <polygon id="_188" class="fil180" points="22030.86,3370.85 22043.58,3384.76 19875.72,5365.94 19863,5352.02 "/>
     <polygon id="_189" class="fil181" points="22039.34,3380.13 22052.06,3394.04 19884.2,5375.22 19871.48,5361.3 "/>
     <polygon id="_190" class="fil182" points="22047.82,3389.41 22060.54,3403.32 19892.69,5384.5 19879.96,5370.57 "/>
     <polygon id="_191" class="fil183" points="22056.3,3398.69 22069.02,3412.6 19901.17,5393.78 19888.44,5379.85 "/>
     <polygon id="_192" class="fil184" points="22064.78,3407.96 22077.5,3421.88 19909.65,5403.06 19896.93,5389.13 "/>
     <polygon id="_193" class="fil184" points="22073.26,3417.24 22085.98,3431.16 19918.13,5412.33 19905.41,5398.41 "/>
     <polygon id="_194" class="fil185" points="22081.74,3426.52 22094.46,3440.44 19926.61,5421.61 19913.89,5407.69 "/>
     <polygon id="_195" class="fil186" points="22090.22,3435.8 22102.94,3449.72 19935.09,5430.89 19922.37,5416.97 "/>
     <polygon id="_196" class="fil187" points="22098.7,3445.08 22111.43,3459 19943.57,5440.17 19930.85,5426.25 "/>
     <polygon id="_197" class="fil188" points="22107.19,3454.36 22119.91,3468.28 19952.05,5449.45 19939.33,5435.53 "/>
     <polygon id="_198" class="fil189" points="22115.67,3463.64 22128.39,3477.56 19960.53,5458.73 19947.81,5444.81 "/>
     <polygon id="_199" class="fil190" points="22124.15,3472.92 22136.87,3486.84 19969.01,5468.01 19956.29,5454.09 "/>
     <polygon id="_200" class="fil191" points="22132.63,3482.2 22145.35,3496.12 19977.49,5477.29 19964.77,5463.37 "/>
     <polygon id="_201" class="fil192" points="22141.11,3491.48 22153.83,3505.4 19985.97,5486.57 19973.25,5472.65 "/>
     <polygon id="_202" class="fil193" points="22149.59,3500.76 22162.31,3514.68 19994.45,5495.85 19981.73,5481.93 "/>
     <polygon id="_203" class="fil193" points="22158.07,3510.04 22170.79,3523.96 20002.93,5505.13 19990.21,5491.21 "/>
     <polygon id="_204" class="fil194" points="22166.55,3519.32 22179.27,3533.24 20011.41,5514.41 19998.69,5500.49 "/>
     <polygon id="_205" class="fil195" points="22175.03,3528.6 22187.75,3542.52 20019.89,5523.69 20007.17,5509.77 "/>
     <polygon id="_206" class="fil196" points="22183.51,3537.88 22196.23,3551.8 20028.37,5532.97 20015.65,5519.05 "/>
     <polygon id="_207" class="fil197" points="22191.99,3547.16 22204.71,3561.08 20036.85,5542.25 20024.13,5528.33 "/>
     <polygon id="_208" class="fil198" points="22200.47,3556.44 22213.19,3570.36 20045.33,5551.53 20032.61,5537.61 "/>
     <polygon id="_209" class="fil199" points="22208.95,3565.72 22221.67,3579.64 20053.82,5560.81 20041.09,5546.89 "/>
     <polygon id="_210" class="fil200" points="22217.43,3575 22230.15,3588.92 20062.3,5570.09 20049.57,5556.17 "/>
     <polygon id="_211" class="fil201" points="22225.91,3584.28 22238.63,3598.2 20070.78,5579.37 20058.06,5565.45 "/>
     <polygon id="_212" class="fil202" points="22234.39,3593.56 22247.11,3607.48 20079.26,5588.65 20066.54,5574.73 "/>
     <polygon id="_213" class="fil203" points="22242.87,3602.83 22255.59,3616.76 20087.74,5597.93 20075.02,5584.01 "/>
     <polygon id="_214" class="fil204" points="22251.35,3612.11 22264.07,3626.04 20096.22,5607.21 20083.5,5593.29 "/>
     <polygon id="_215" class="fil205" points="22259.83,3621.39 22272.56,3635.31 20104.7,5616.49 20091.98,5602.57 "/>
     <polygon id="_216" class="fil206" points="22268.31,3630.68 22281.04,3644.59 20113.18,5625.77 20100.46,5611.85 "/>
     <polygon id="_217" class="fil207" points="22276.8,3639.96 22289.52,3653.87 20121.66,5635.05 20108.94,5621.13 "/>
     <polygon id="_218" class="fil208" points="22285.28,3649.24 22298,3663.15 20130.14,5644.33 20117.42,5630.41 "/>
     <polygon id="_219" class="fil209" points="22293.76,3658.52 22306.48,3672.43 20138.62,5653.61 20125.9,5639.69 "/>
     <polygon id="_220" class="fil210" points="22302.24,3667.8 22314.96,3681.71 20147.1,5662.89 20134.38,5648.96 "/>
     <polygon id="_221" class="fil211" points="22310.72,3677.07 22323.44,3690.99 20155.58,5672.17 20142.86,5658.24 "/>
     <polygon id="_222" class="fil212" points="22319.2,3686.35 22331.92,3700.27 20164.06,5681.44 20151.34,5667.52 "/>
     <polygon id="_223" class="fil212" points="22327.68,3695.63 22340.4,3709.55 20172.54,5690.72 20159.82,5676.8 "/>
     <polygon id="_224" class="fil212" points="22336.16,3704.91 22348.88,3718.83 20181.02,5700 20168.3,5686.08 "/>
     <polygon id="_225" class="fil213" points="22344.64,3714.19 22357.36,3728.11 20189.5,5709.28 20176.78,5695.36 "/>
     <polygon id="_226" class="fil213" points="22353.12,3723.47 22365.84,3737.39 20197.98,5718.56 20185.26,5704.64 "/>
     <polygon id="_227" class="fil214" points="22361.6,3732.75 22374.32,3746.67 20206.46,5727.84 20193.74,5713.92 "/>
     <polygon id="_228" class="fil214" points="22370.08,3742.03 22382.8,3755.95 20214.95,5737.12 20202.22,5723.2 "/>
     <polygon id="_229" class="fil215" points="22378.56,3751.31 22391.28,3765.23 20223.43,5746.4 20210.71,5732.48 "/>
     <polygon id="_230" class="fil215" points="22387.04,3760.59 22399.76,3774.51 20231.91,5755.68 20219.19,5741.76 "/>
     <polygon id="_231" class="fil216" points="22395.52,3769.87 22408.24,3783.79 20240.39,5764.96 20227.67,5751.04 "/>
     <polygon id="_232" class="fil216" points="22404,3779.15 22416.72,3793.07 20248.87,5774.24 20236.15,5760.32 "/>
     <polygon id="_233" class="fil216" points="22412.48,3788.43 22425.2,3802.35 20257.35,5783.52 20244.63,5769.6 "/>
     <polygon id="_234" class="fil217" points="22420.96,3797.71 22433.69,3811.63 20265.83,5792.8 20253.11,5778.88 "/>
     <polygon id="_235" class="fil217" points="22429.44,3806.99 22442.17,3820.91 20274.31,5802.08 20261.59,5788.16 "/>
     <polygon id="_236" class="fil217" points="22437.93,3816.27 22450.65,3830.19 20282.79,5811.36 20270.07,5797.44 "/>
     <polygon id="_237" class="fil218" points="22446.41,3825.55 22459.13,3839.47 20291.27,5820.64 20278.55,5806.72 "/>
     <polygon id="_238" class="fil218" points="22454.89,3834.83 22467.61,3848.75 20299.75,5829.92 20287.03,5816 "/>
     <polygon id="_239" class="fil218" points="22463.37,3844.11 22458.98,3839.3 20291.12,5820.47 20295.51,5825.28 "/>
    </g>
   </g>
   <g style="clip-path:url(#id1)">
    <g>
     <g>
      <rect class="fil219" x="8874.22" y="361.79" width="1163.71" height="3273.27"/>
      <g>
       <rect class="fil220" x="10034.26" y="361.79" width="1163.71" height="3273.27"/>
       <rect class="fil172" x="11196.28" y="359.9" width="1163.71" height="3273.27"/>
       <rect class="fil221" x="12355.4" y="361.79" width="1163.71" height="3273.27"/>
      </g>
     </g>
    </g>
   </g>
   <polygon class="fil0" points="20799.18,2104.63 20802.61,3296.38 21962.81,3296.38 21962.81,4168.25 20802.61,4168.25 20802.61,5353.03 19920.23,5353.03 19920.23,4168.25 18781.18,4168.25 18781.18,3296.38 19920.23,3296.38 19920.23,2104.63 "/>
   <g>
    <g>
    </g>
    <g style="clip-path:url(#id2)">
     <g>
      <rect class="fil172" x="880.05" y="431.88" width="10421.66" height="10997.46"/>
      <rect class="fil221" x="11300.68" y="431.88" width="10421.66" height="10997.46"/>
      <rect class="fil220" x="880.05" y="11408.12" width="10421.66" height="10997.46"/>
      <rect class="fil219" x="11306.32" y="11408.12" width="10421.66" height="10997.46"/>
     </g>
    </g>
    <path class="fil0" d="M15914.43 17980.75l3642.13 3658.5c362.03,-984.63 1104.82,-1785.06 2049.81,-2223.65l-3555.39 -3571.58c2559.85,-3857.97 2163.64,-8526.91 -1250.83,-11814.11 -389.85,-375.3 -1098.09,-867.35 -1569.59,-1152.28 -1103.19,-666.42 -2776.42,-1228.29 -4274.55,-1228.29 -2208.56,0 -3725.23,515.5 -5330.46,1578.5l-1294.11 1046.81 -1025.18 1261.2c-1079.91,1626.69 -1600.13,3130.09 -1600.13,5361.92 0,1879.43 762.97,3661.77 1719.24,5036.98 897.71,1291.2 2344.57,2388.75 3801.96,3002.8 2952.8,1244.29 6012.33,833.89 8687.11,-956.81zm762.06 -7579.93c0,1046.45 -147.1,1740.69 -450.4,2502.21 -166.74,417.67 -288.2,606.6 -506.04,963.72 -946.26,1550.5 -2958.62,2752.96 -4768.41,2752.96 -1745.24,0 -3307.92,-577.5 -4490.93,-1760.52 -370.58,-370.58 -867.71,-1080.09 -1107.91,-1559.59 -310.57,-620.24 -598.06,-1486.49 -598.06,-2418.57 0,-1852.89 488.04,-3214.46 1728.33,-4454.74 1242.83,-1243.02 2604.04,-1728.33 4459.48,-1728.33 1245.2,0 2771.87,602.6 3597.22,1374.48l410.58 351.67c932.08,932.08 1726.15,2633.68 1726.15,3976.7z"/>
    <g>
    </g>
    <g style="clip-path:url(#id3)">
     <g>
      <g>
       <rect class="fil219" transform="matrix(18.3576 -18.6752 18.6752 18.3576 18936.7 21138.1)" width="29.92" height="81.78"/>
       <g>
        <rect class="fil220" transform="matrix(18.3576 -18.6752 18.6752 18.3576 19484.1 20581.2)" width="29.92" height="81.78"/>
        <rect class="fil172" transform="matrix(18.3576 -18.6752 18.6752 18.3576 20031.7 20022.4)" width="29.92" height="81.78"/>
        <rect class="fil221" transform="matrix(18.3576 -18.6752 18.6752 18.3576 20579.6 19466.7)" width="29.92" height="81.78"/>
       </g>
      </g>
     </g>
    </g>
    <path class="fil0" d="M20265.61 22350.65c276.52,-1033.89 1039.31,-1868.87 2028.28,-2245.36l-480.15 -482.43c-945.1,438.55 -1687.78,1239.09 -2049.95,2223.69l501.83 504.09z"/>
   </g>
  </g>
 </g>
</svg>
