<?xml version="1.0" encoding="UTF-8"?>
<!DOCTYPE svg PUBLIC "-//W3C//DTD SVG 1.1//EN" "http://www.w3.org/Graphics/SVG/1.1/DTD/svg11.dtd">
<!-- Creator: CorelDRAW -->
<svg xmlns="http://www.w3.org/2000/svg" xml:space="preserve" width="127.837in" height="127.837in" version="1.1" style="shape-rendering:geometricPrecision; text-rendering:geometricPrecision; image-rendering:optimizeQuality; fill-rule:evenodd; clip-rule:evenodd"
viewBox="0 0 127837.15 127837.15"
 xmlns:xlink="http://www.w3.org/1999/xlink"
 xmlns:xodm="http://www.corel.com/coreldraw/odm/2003">
 <defs>
  <style type="text/css">
   <![CDATA[
    .fil0 {fill:none}
    .fil60 {fill:#00B8F1}
    .fil61 {fill:#00B9F2}
    .fil62 {fill:#00BBF3}
    .fil63 {fill:#00BCF4}
    .fil64 {fill:#00BEF5}
    .fil65 {fill:#00BFF6}
    .fil66 {fill:#00C1F7}
    .fil67 {fill:#00C2F8}
    .fil68 {fill:#00C3F9}
    .fil69 {fill:#00C4FA}
    .fil70 {fill:#00C5FA}
    .fil71 {fill:#00C6FB}
    .fil72 {fill:#00C7FC}
    .fil73 {fill:#00C8FC}
    .fil74 {fill:#00C9FD}
    .fil75 {fill:#00CAFD}
    .fil76 {fill:#00CAFE}
    .fil77 {fill:#00CBFE}
    .fil78 {fill:#00CBFF}
    .fil79 {fill:#00CCFF}
    .fil38 {fill:#018CD3}
    .fil39 {fill:#018ED5}
    .fil40 {fill:#0190D6}
    .fil41 {fill:#0192D8}
    .fil42 {fill:#0195D9}
    .fil43 {fill:#0197DB}
    .fil44 {fill:#0199DC}
    .fil45 {fill:#019BDD}
    .fil46 {fill:#019DDF}
    .fil47 {fill:#019FE0}
    .fil48 {fill:#01A1E2}
    .fil49 {fill:#01A3E3}
    .fil50 {fill:#01A5E5}
    .fil51 {fill:#01A7E6}
    .fil52 {fill:#01A9E7}
    .fil53 {fill:#01ABE9}
    .fil54 {fill:#01ADEA}
    .fil55 {fill:#01AFEB}
    .fil56 {fill:#01B1EC}
    .fil57 {fill:#01B3EE}
    .fil58 {fill:#01B4EF}
    .fil59 {fill:#01B6F0}
    .fil80 {fill:#01CCFE}
    .fil17 {fill:#0261B6}
    .fil18 {fill:#0263B7}
    .fil19 {fill:#0265B8}
    .fil20 {fill:#0266BA}
    .fil21 {fill:#0268BB}
    .fil22 {fill:#026ABC}
    .fil23 {fill:#026CBD}
    .fil24 {fill:#026EBF}
    .fil25 {fill:#0270C0}
    .fil26 {fill:#0272C2}
    .fil27 {fill:#0274C3}
    .fil28 {fill:#0276C4}
    .fil29 {fill:#0278C6}
    .fil30 {fill:#027BC7}
    .fil31 {fill:#027DC9}
    .fil32 {fill:#027FCA}
    .fil33 {fill:#0281CC}
    .fil34 {fill:#0283CD}
    .fil35 {fill:#0285CF}
    .fil36 {fill:#0287D0}
    .fil37 {fill:#028AD2}
    .fil82 {fill:#02CBFC}
    .fil81 {fill:#02CCFD}
    .fil219 {fill:#034AA6}
    .fil1 {fill:#034DA8}
    .fil2 {fill:#034EA9}
    .fil3 {fill:#034FA9}
    .fil4 {fill:#034FAA}
    .fil5 {fill:#0350AA}
    .fil6 {fill:#0351AB}
    .fil7 {fill:#0353AC}
    .fil8 {fill:#0354AD}
    .fil9 {fill:#0355AE}
    .fil10 {fill:#0356AE}
    .fil11 {fill:#0358AF}
    .fil12 {fill:#0359B0}
    .fil13 {fill:#035BB1}
    .fil14 {fill:#035CB2}
    .fil15 {fill:#035EB4}
    .fil16 {fill:#035FB5}
    .fil220 {fill:#03BFC0}
    .fil83 {fill:#03CBFC}
    .fil84 {fill:#04CBFA}
    .fil85 {fill:#06CAF9}
    .fil86 {fill:#07CAF8}
    .fil87 {fill:#08CAF7}
    .fil88 {fill:#0AC9F5}
    .fil89 {fill:#0BC9F3}
    .fil90 {fill:#0DC8F1}
    .fil91 {fill:#0FC8F0}
    .fil92 {fill:#11C7ED}
    .fil93 {fill:#13C7EB}
    .fil94 {fill:#15C6E9}
    .fil95 {fill:#18C5E7}
    .fil96 {fill:#1AC5E4}
    .fil97 {fill:#1DC4E2}
    .fil98 {fill:#1FC3DF}
    .fil99 {fill:#22C2DC}
    .fil100 {fill:#24C2DA}
    .fil101 {fill:#27C1D7}
    .fil102 {fill:#2AC0D4}
    .fil103 {fill:#2DBFD1}
    .fil104 {fill:#30BECE}
    .fil105 {fill:#33BDCA}
    .fil106 {fill:#36BCC7}
    .fil107 {fill:#3ABBC4}
    .fil108 {fill:#3DBAC1}
    .fil109 {fill:#40B9BD}
    .fil110 {fill:#44B8BA}
    .fil111 {fill:#47B7B6}
    .fil112 {fill:#4BB6B3}
    .fil113 {fill:#4EB5AF}
    .fil114 {fill:#52B4AB}
    .fil115 {fill:#55B3A8}
    .fil116 {fill:#59B2A4}
    .fil117 {fill:#5CB1A0}
    .fil118 {fill:#60B09C}
    .fil119 {fill:#64AE99}
    .fil120 {fill:#67AD95}
    .fil121 {fill:#6BAC91}
    .fil122 {fill:#6FAB8D}
    .fil123 {fill:#73AA89}
    .fil124 {fill:#76A985}
    .fil125 {fill:#7AA782}
    .fil126 {fill:#7EA67E}
    .fil127 {fill:#82A57A}
    .fil128 {fill:#85A476}
    .fil129 {fill:#89A272}
    .fil130 {fill:#8DA16E}
    .fil131 {fill:#90A06B}
    .fil132 {fill:#949F67}
    .fil133 {fill:#989E63}
    .fil134 {fill:#9B9C5F}
    .fil135 {fill:#9F9B5C}
    .fil136 {fill:#A39A58}
    .fil137 {fill:#A69954}
    .fil138 {fill:#AA9751}
    .fil139 {fill:#AD964D}
    .fil140 {fill:#B0954A}
    .fil141 {fill:#B49446}
    .fil142 {fill:#B79343}
    .fil143 {fill:#BA913F}
    .fil144 {fill:#BD903C}
    .fil145 {fill:#C18F39}
    .fil146 {fill:#C48E36}
    .fil147 {fill:#C78D33}
    .fil148 {fill:#CA8B30}
    .fil149 {fill:#CC8A2D}
    .fil150 {fill:#CF892A}
    .fil151 {fill:#D28827}
    .fil152 {fill:#D48724}
    .fil153 {fill:#D78622}
    .fil221 {fill:#D95103}
    .fil154 {fill:#D9851F}
    .fil218 {fill:#DA5203}
    .fil217 {fill:#DB5203}
    .fil216 {fill:#DC5303}
    .fil155 {fill:#DC841D}
    .fil215 {fill:#DD5403}
    .fil214 {fill:#DE5403}
    .fil156 {fill:#DE831A}
    .fil213 {fill:#DF5503}
    .fil212 {fill:#E05603}
    .fil157 {fill:#E08218}
    .fil211 {fill:#E15703}
    .fil210 {fill:#E25703}
    .fil209 {fill:#E25803}
    .fil158 {fill:#E28116}
    .fil208 {fill:#E35803}
    .fil207 {fill:#E35903}
    .fil206 {fill:#E45903}
    .fil205 {fill:#E45A03}
    .fil159 {fill:#E48014}
    .fil204 {fill:#E55A03}
    .fil203 {fill:#E55B03}
    .fil202 {fill:#E65B03}
    .fil201 {fill:#E65C03}
    .fil160 {fill:#E67F12}
    .fil200 {fill:#E75C03}
    .fil199 {fill:#E75D03}
    .fil198 {fill:#E85D03}
    .fil161 {fill:#E87E10}
    .fil197 {fill:#E95E03}
    .fil196 {fill:#E95F03}
    .fil162 {fill:#E97D0F}
    .fil195 {fill:#EA5F03}
    .fil194 {fill:#EA6003}
    .fil193 {fill:#EB6104}
    .fil163 {fill:#EB7C0D}
    .fil192 {fill:#EC6204}
    .fil191 {fill:#EC6304}
    .fil164 {fill:#EC7B0C}
    .fil190 {fill:#ED6304}
    .fil189 {fill:#ED6404}
    .fil188 {fill:#ED6504}
    .fil165 {fill:#ED7A0A}
    .fil187 {fill:#EE6504}
    .fil186 {fill:#EE6604}
    .fil166 {fill:#EE7909}
    .fil185 {fill:#EF6704}
    .fil184 {fill:#EF6804}
    .fil167 {fill:#EF7808}
    .fil183 {fill:#F06904}
    .fil182 {fill:#F06A04}
    .fil181 {fill:#F06B04}
    .fil168 {fill:#F07807}
    .fil180 {fill:#F16C04}
    .fil179 {fill:#F16D04}
    .fil178 {fill:#F16E04}
    .fil177 {fill:#F16F05}
    .fil170 {fill:#F17606}
    .fil169 {fill:#F17707}
    .fil176 {fill:#F27005}
    .fil175 {fill:#F27105}
    .fil174 {fill:#F27205}
    .fil173 {fill:#F27305}
    .fil172 {fill:#F27405}
    .fil171 {fill:#F27505}
   ]]>
  </style>
      <clipPath id="id0">
       <path d="M110787.82 11210.39l18.28 6347.95 6179.86 0 0 4644.04 -6179.86 0 0 6310.8 -4700.06 0 0 -6310.8 -6067.21 0 0 -4644.04 6067.21 0 0 -6347.95 4681.78 0z"/>
      </clipPath>
     <clipPath id="id1">
      <path d="M110787.82 11210.39l18.28 6347.95 6179.86 0 0 4644.04 -6179.86 0 0 6310.8 -4700.06 0 0 -6310.8 -6067.21 0 0 -4644.04 6067.21 0 0 -6347.95 4681.78 0z"/>
     </clipPath>
      <clipPath id="id2">
       <path d="M84768.96 95775.33l19399.98 19487.15c1928.38,-5244.68 5884.89,-9508.22 10918.43,-11844.35l-18937.99 -19024.19c13635.2,-20549.65 11524.74,-45419.02 -6662.63,-62928.4 -2076.57,-1999.08 -5849.06,-4619.97 -8360.5,-6137.68 -5876.17,-3549.72 -14788.74,-6542.53 -22768.59,-6542.53 -11763.96,0 -19842.61,2745.83 -28392.94,8407.95l-6893.15 5575.92 -5460.66 6717.84c-5752.2,8664.62 -8523.21,16672.56 -8523.21,28560.5 0,10010.9 4064.02,19504.59 9157.61,26829.7 4781.71,6877.65 12488.44,12723.8 20251.34,15994.58 15728.22,6627.76 32024.99,4441.75 46272.31,-5096.49zm4059.18 -40374.83c0,5573.99 -783.55,9271.9 -2399.09,13328.17 -888.16,2224.75 -1535.15,3231.07 -2695.47,5133.3 -5040.31,8258.8 -15759.22,14663.8 -25399.16,14663.8 -9296.11,0 -17619.8,-3076.1 -23921.16,-9377.47 -1973.9,-1973.9 -4621.91,-5753.17 -5901.35,-8307.22 -1654.28,-3303.71 -3185.55,-7917.87 -3185.55,-12882.64 0,-9869.49 2599.58,-17121.96 9206.03,-23728.42 6620.02,-6620.98 13870.56,-9206.04 23753.6,-9206.04 6632.61,0 14764.52,3209.76 19160.76,7321.24l2186.98 1873.17c4964.77,4964.77 9194.41,14028.43 9194.41,21182.11z"/>
      </clipPath>
      <clipPath id="id3">
       <path d="M107945.74 119051.83c1472.89,-5507.06 5535.92,-9954.6 10803.7,-11960.05l-2557.55 -2569.65c-5034.09,2335.96 -8990.05,6600.09 -10919.15,11844.6l2673 2685.1z"/>
      </clipPath>
 </defs>
 <g id="Layer_x0020_1">
  <metadata id="CorelCorpID_0Corel-Layer"/>
  <g id="_1387788196656">
   <rect class="fil0" width="127837.15" height="127837.15"/>
   <g>
    <g>
     <g style="clip-path:url(#id0)">
      <polygon class="fil1" points="108873.41,8681.34 108923.87,8736.55 97376.67,19289.36 97326.21,19234.14 "/>
      <polygon id="_1" class="fil2" points="108901.28,8711.84 108969.04,8785.98 97421.85,19338.79 97354.09,19264.64 "/>
      <polygon id="_2" class="fil3" points="108946.45,8761.27 109014.21,8835.41 97467.02,19388.21 97399.26,19314.07 "/>
      <polygon id="_3" class="fil4" points="108991.63,8810.69 109059.39,8884.84 97512.19,19437.64 97444.43,19363.5 "/>
      <polygon id="_4" class="fil5" points="109036.8,8860.12 109104.56,8934.26 97557.36,19487.07 97489.6,19412.93 "/>
      <polygon id="_5" class="fil6" points="109081.97,8909.55 109149.73,8983.69 97602.53,19536.5 97534.78,19462.36 "/>
      <polygon id="_6" class="fil7" points="109127.14,8958.98 109194.9,9033.12 97647.7,19585.93 97579.94,19511.79 "/>
      <polygon id="_7" class="fil8" points="109172.31,9008.41 109240.07,9082.55 97692.88,19635.36 97625.12,19561.21 "/>
      <polygon id="_8" class="fil9" points="109217.48,9057.84 109285.24,9131.98 97738.05,19684.78 97670.29,19610.64 "/>
      <polygon id="_9" class="fil10" points="109262.66,9107.26 109330.42,9181.41 97783.22,19734.21 97715.46,19660.07 "/>
      <polygon id="_10" class="fil11" points="109307.83,9156.69 109375.59,9230.84 97828.39,19783.64 97760.63,19709.5 "/>
      <polygon id="_11" class="fil12" points="109353,9206.12 109420.76,9280.26 97873.56,19833.07 97805.81,19758.93 "/>
      <polygon id="_12" class="fil13" points="109398.17,9255.55 109465.93,9329.69 97918.74,19882.5 97850.98,19808.36 "/>
      <polygon id="_13" class="fil14" points="109443.35,9304.98 109511.1,9379.12 97963.91,19931.93 97896.15,19857.78 "/>
      <polygon id="_14" class="fil15" points="109488.52,9354.41 109556.28,9428.55 98009.08,19981.36 97941.32,19907.21 "/>
      <polygon id="_15" class="fil16" points="109533.69,9403.83 109601.45,9477.98 98054.25,20030.78 97986.5,19956.64 "/>
      <polygon id="_16" class="fil17" points="109578.86,9453.26 109646.62,9527.41 98099.43,20080.21 98031.67,20006.07 "/>
      <polygon id="_17" class="fil18" points="109624.03,9502.69 109691.79,9576.83 98144.59,20129.64 98076.84,20055.5 "/>
      <polygon id="_18" class="fil19" points="109669.2,9552.12 109736.96,9626.26 98189.77,20179.07 98122.01,20104.93 "/>
      <polygon id="_19" class="fil20" points="109714.38,9601.55 109782.13,9675.69 98234.94,20228.5 98167.18,20154.35 "/>
      <polygon id="_20" class="fil21" points="109759.55,9650.98 109827.31,9725.12 98280.11,20277.93 98212.35,20203.78 "/>
      <polygon id="_21" class="fil22" points="109804.72,9700.41 109872.48,9774.55 98325.28,20327.35 98257.53,20253.21 "/>
      <polygon id="_22" class="fil23" points="109849.89,9749.83 109917.65,9823.98 98370.46,20376.78 98302.7,20302.64 "/>
      <polygon id="_23" class="fil24" points="109895.07,9799.26 109962.82,9873.41 98415.63,20426.21 98347.87,20352.07 "/>
      <polygon id="_24" class="fil25" points="109940.24,9848.69 110008,9922.83 98460.8,20475.64 98393.04,20401.5 "/>
      <polygon id="_25" class="fil26" points="109985.41,9898.12 110053.17,9972.26 98505.97,20525.07 98438.21,20450.93 "/>
      <polygon id="_26" class="fil27" points="110030.58,9947.55 110098.34,10021.69 98551.15,20574.5 98483.39,20500.35 "/>
      <polygon id="_27" class="fil28" points="110075.75,9996.98 110143.51,10071.12 98596.31,20623.93 98528.56,20549.78 "/>
      <polygon id="_28" class="fil29" points="110120.93,10046.41 110188.68,10120.55 98641.49,20673.35 98573.73,20599.21 "/>
      <polygon id="_29" class="fil30" points="110166.1,10095.83 110233.85,10169.98 98686.66,20722.78 98618.9,20648.64 "/>
      <polygon id="_30" class="fil31" points="110211.27,10145.26 110279.03,10219.41 98731.83,20772.21 98664.07,20698.07 "/>
      <polygon id="_31" class="fil32" points="110256.44,10194.69 110324.2,10268.83 98777,20821.64 98709.24,20747.5 "/>
      <polygon id="_32" class="fil33" points="110301.61,10244.12 110369.37,10318.26 98822.18,20871.07 98754.42,20796.93 "/>
      <polygon id="_33" class="fil34" points="110346.78,10293.55 110414.54,10367.69 98867.35,20920.5 98799.59,20846.35 "/>
      <polygon id="_34" class="fil35" points="110391.96,10342.98 110459.72,10417.12 98912.52,20969.93 98844.76,20895.78 "/>
      <polygon id="_35" class="fil36" points="110437.13,10392.41 110504.89,10466.55 98957.69,21019.35 98889.93,20945.21 "/>
      <polygon id="_36" class="fil37" points="110482.3,10441.83 110550.06,10515.98 99002.86,21068.78 98935.11,20994.64 "/>
      <polygon id="_37" class="fil38" points="110527.47,10491.26 110595.23,10565.41 99048.04,21118.21 98980.28,21044.07 "/>
      <polygon id="_38" class="fil39" points="110572.65,10540.69 110640.4,10614.83 99093.21,21167.64 99025.45,21093.5 "/>
      <polygon id="_39" class="fil40" points="110617.81,10590.12 110685.57,10664.26 99138.38,21217.07 99070.62,21142.93 "/>
      <polygon id="_40" class="fil41" points="110662.99,10639.55 110730.75,10713.69 99183.55,21266.5 99115.8,21192.35 "/>
      <polygon id="_41" class="fil42" points="110708.16,10688.98 110775.92,10763.12 99228.72,21315.93 99160.96,21241.78 "/>
      <polygon id="_42" class="fil43" points="110753.33,10738.41 110821.09,10812.55 99273.89,21365.35 99206.14,21291.21 "/>
      <polygon id="_43" class="fil44" points="110798.5,10787.83 110866.26,10861.98 99319.07,21414.78 99251.31,21340.64 "/>
      <polygon id="_44" class="fil45" points="110843.68,10837.26 110911.43,10911.41 99364.24,21464.21 99296.48,21390.07 "/>
      <polygon id="_45" class="fil46" points="110888.85,10886.69 110956.61,10960.83 99409.41,21513.64 99341.65,21439.5 "/>
      <polygon id="_46" class="fil47" points="110934.02,10936.12 111001.78,11010.26 99454.58,21563.07 99386.83,21488.93 "/>
      <polygon id="_47" class="fil48" points="110979.19,10985.55 111046.95,11059.69 99499.76,21612.5 99432,21538.35 "/>
      <polygon id="_48" class="fil49" points="111024.37,11034.98 111092.12,11109.12 99544.93,21661.93 99477.17,21587.78 "/>
      <polygon id="_49" class="fil50" points="111069.54,11084.41 111137.3,11158.55 99590.1,21711.35 99522.34,21637.21 "/>
      <polygon id="_50" class="fil51" points="111114.71,11133.83 111182.46,11207.98 99635.27,21760.78 99567.51,21686.64 "/>
      <polygon id="_51" class="fil52" points="111159.88,11183.26 111227.64,11257.41 99680.44,21810.21 99612.69,21736.07 "/>
      <polygon id="_52" class="fil53" points="111205.05,11232.69 111272.81,11306.83 99725.61,21859.64 99657.86,21785.5 "/>
      <polygon id="_53" class="fil54" points="111250.22,11282.12 111317.98,11356.26 99770.79,21909.07 99703.03,21834.93 "/>
      <polygon id="_54" class="fil55" points="111295.4,11331.55 111363.15,11405.69 99815.96,21958.5 99748.2,21884.35 "/>
      <polygon id="_55" class="fil56" points="111340.57,11380.98 111408.33,11455.12 99861.13,22007.93 99793.37,21933.78 "/>
      <polygon id="_56" class="fil57" points="111385.74,11430.41 111453.5,11504.55 99906.3,22057.35 99838.54,21983.21 "/>
      <polygon id="_57" class="fil58" points="111430.91,11479.83 111498.67,11553.98 99951.48,22106.78 99883.72,22032.64 "/>
      <polygon id="_58" class="fil59" points="111476.08,11529.26 111543.84,11603.41 99996.65,22156.21 99928.89,22082.07 "/>
      <polygon id="_59" class="fil60" points="111521.26,11578.69 111589.02,11652.83 100041.82,22205.64 99974.06,22131.5 "/>
      <polygon id="_60" class="fil61" points="111566.43,11628.12 111634.19,11702.26 100086.99,22255.07 100019.23,22180.93 "/>
      <polygon id="_61" class="fil62" points="111611.6,11677.55 111679.36,11751.69 100132.16,22304.5 100064.41,22230.35 "/>
      <polygon id="_62" class="fil63" points="111656.77,11726.98 111724.53,11801.12 100177.33,22353.93 100109.57,22279.78 "/>
      <polygon id="_63" class="fil64" points="111701.94,11776.41 111769.7,11850.55 100222.51,22403.35 100154.75,22329.21 "/>
      <polygon id="_64" class="fil65" points="111747.11,11825.83 111814.87,11899.98 100267.68,22452.78 100199.92,22378.64 "/>
      <polygon id="_65" class="fil66" points="111792.29,11875.26 111860.05,11949.41 100312.85,22502.21 100245.09,22428.07 "/>
      <polygon id="_66" class="fil67" points="111837.46,11924.69 111905.22,11998.83 100358.02,22551.64 100290.26,22477.5 "/>
      <polygon id="_67" class="fil68" points="111882.63,11974.12 111950.39,12048.26 100403.19,22601.07 100335.44,22526.93 "/>
      <polygon id="_68" class="fil69" points="111927.8,12023.55 111995.56,12097.69 100448.37,22650.5 100380.61,22576.35 "/>
      <polygon id="_69" class="fil70" points="111972.98,12072.98 112040.73,12147.12 100493.54,22699.93 100425.78,22625.78 "/>
      <polygon id="_70" class="fil71" points="112018.15,12122.41 112085.91,12196.55 100538.71,22749.35 100470.95,22675.21 "/>
      <polygon id="_71" class="fil72" points="112063.32,12171.83 112131.08,12245.98 100583.88,22798.78 100516.13,22724.64 "/>
      <polygon id="_72" class="fil73" points="112108.49,12221.26 112176.25,12295.41 100629.06,22848.21 100561.3,22774.07 "/>
      <polygon id="_73" class="fil74" points="112153.66,12270.69 112221.42,12344.83 100674.22,22897.64 100606.47,22823.5 "/>
      <polygon id="_74" class="fil75" points="112198.83,12320.12 112266.59,12394.26 100719.4,22947.07 100651.64,22872.93 "/>
      <polygon id="_75" class="fil76" points="112244.01,12369.55 112311.76,12443.69 100764.57,22996.5 100696.81,22922.35 "/>
      <polygon id="_76" class="fil77" points="112289.18,12418.98 112356.94,12493.12 100809.74,23045.93 100741.98,22971.78 "/>
      <polygon id="_77" class="fil77" points="112334.35,12468.41 112402.11,12542.55 100854.91,23095.35 100787.16,23021.21 "/>
      <polygon id="_78" class="fil78" points="112379.52,12517.83 112447.28,12591.98 100900.09,23144.78 100832.33,23070.64 "/>
      <polygon id="_79" class="fil79" points="112424.7,12567.26 112492.45,12641.41 100945.26,23194.21 100877.5,23120.07 "/>
      <polygon id="_80" class="fil79" points="112469.87,12616.69 112537.63,12690.83 100990.43,23243.64 100922.67,23169.5 "/>
      <polygon id="_81" class="fil79" points="112515.04,12666.12 112582.8,12740.26 101035.6,23293.07 100967.84,23218.93 "/>
      <polygon id="_82" class="fil79" points="112560.21,12715.55 112627.97,12789.69 101080.78,23342.5 101013.02,23268.35 "/>
      <polygon id="_83" class="fil79" points="112605.38,12764.98 112673.14,12839.12 101125.94,23391.93 101058.19,23317.78 "/>
      <polygon id="_84" class="fil80" points="112650.56,12814.41 112718.31,12888.55 101171.12,23441.35 101103.36,23367.21 "/>
      <polygon id="_85" class="fil80" points="112695.73,12863.83 112763.48,12937.98 101216.29,23490.78 101148.53,23416.64 "/>
      <polygon id="_86" class="fil81" points="112740.9,12913.26 112808.66,12987.41 101261.46,23540.21 101193.7,23466.07 "/>
      <polygon id="_87" class="fil82" points="112786.07,12962.69 112853.83,13036.83 101306.63,23589.64 101238.87,23515.5 "/>
      <polygon id="_88" class="fil83" points="112831.24,13012.12 112899,13086.26 101351.81,23639.07 101284.05,23564.93 "/>
      <polygon id="_89" class="fil84" points="112876.41,13061.55 112944.17,13135.69 101396.98,23688.5 101329.22,23614.35 "/>
      <polygon id="_90" class="fil85" points="112921.59,13110.98 112989.35,13185.12 101442.15,23737.92 101374.39,23663.78 "/>
      <polygon id="_91" class="fil86" points="112966.76,13160.4 113034.52,13234.55 101487.32,23787.35 101419.56,23713.21 "/>
      <polygon id="_92" class="fil87" points="113011.93,13209.83 113079.69,13283.98 101532.49,23836.78 101464.74,23762.64 "/>
      <polygon id="_93" class="fil88" points="113057.1,13259.26 113124.86,13333.4 101577.67,23886.21 101509.91,23812.07 "/>
      <polygon id="_94" class="fil89" points="113102.28,13308.69 113170.03,13382.83 101622.84,23935.64 101555.08,23861.5 "/>
      <polygon id="_95" class="fil90" points="113147.44,13358.12 113215.2,13432.26 101668.01,23985.07 101600.25,23910.92 "/>
      <polygon id="_96" class="fil91" points="113192.62,13407.55 113260.38,13481.69 101713.18,24034.5 101645.43,23960.35 "/>
      <polygon id="_97" class="fil92" points="113237.79,13456.98 113305.55,13531.12 101758.35,24083.92 101690.59,24009.78 "/>
      <polygon id="_98" class="fil93" points="113282.96,13506.4 113350.72,13580.55 101803.52,24133.35 101735.77,24059.21 "/>
      <polygon id="_99" class="fil94" points="113328.13,13555.83 113395.89,13629.97 101848.7,24182.78 101780.94,24108.64 "/>
      <polygon id="_100" class="fil95" points="113373.31,13605.26 113441.06,13679.4 101893.87,24232.21 101826.11,24158.07 "/>
      <polygon id="_101" class="fil96" points="113418.48,13654.69 113486.24,13728.83 101939.04,24281.64 101871.28,24207.49 "/>
      <polygon id="_102" class="fil97" points="113463.65,13704.12 113531.41,13778.26 101984.21,24331.07 101916.46,24256.92 "/>
      <polygon id="_103" class="fil98" points="113508.82,13753.55 113576.58,13827.69 102029.39,24380.49 101961.63,24306.35 "/>
      <polygon id="_104" class="fil99" points="113554,13802.97 113621.75,13877.12 102074.56,24429.92 102006.8,24355.78 "/>
      <polygon id="_105" class="fil100" points="113599.17,13852.4 113666.93,13926.55 102119.73,24479.35 102051.97,24405.21 "/>
      <polygon id="_106" class="fil101" points="113644.34,13901.83 113712.09,13975.97 102164.9,24528.78 102097.14,24454.64 "/>
      <polygon id="_107" class="fil102" points="113689.51,13951.26 113757.27,14025.4 102210.07,24578.21 102142.31,24504.07 "/>
      <polygon id="_108" class="fil103" points="113734.68,14000.69 113802.44,14074.83 102255.24,24627.64 102187.49,24553.49 "/>
      <polygon id="_109" class="fil104" points="113779.85,14050.12 113847.61,14124.26 102300.42,24677.06 102232.66,24602.92 "/>
      <polygon id="_110" class="fil105" points="113825.03,14099.54 113892.78,14173.69 102345.59,24726.49 102277.83,24652.35 "/>
      <polygon id="_111" class="fil106" points="113870.2,14148.97 113937.96,14223.12 102390.76,24775.92 102323,24701.78 "/>
      <polygon id="_112" class="fil107" points="113915.37,14198.4 113983.13,14272.54 102435.93,24825.35 102368.17,24751.21 "/>
      <polygon id="_113" class="fil108" points="113960.54,14247.83 114028.3,14321.97 102481.11,24874.78 102413.35,24800.64 "/>
      <polygon id="_114" class="fil109" points="114005.71,14297.26 114073.47,14371.4 102526.28,24924.21 102458.52,24850.06 "/>
      <polygon id="_115" class="fil110" points="114050.89,14346.69 114118.65,14420.83 102571.45,24973.64 102503.69,24899.49 "/>
      <polygon id="_116" class="fil111" points="114096.06,14396.12 114163.81,14470.26 102616.62,25023.06 102548.86,24948.92 "/>
      <polygon id="_117" class="fil112" points="114141.23,14445.54 114208.99,14519.69 102661.79,25072.49 102594.04,24998.35 "/>
      <polygon id="_118" class="fil113" points="114186.4,14494.97 114254.16,14569.11 102706.96,25121.92 102639.2,25047.78 "/>
      <polygon id="_119" class="fil114" points="114231.57,14544.4 114299.33,14618.54 102752.14,25171.35 102684.38,25097.21 "/>
      <polygon id="_120" class="fil115" points="114276.74,14593.83 114344.5,14667.97 102797.31,25220.78 102729.55,25146.63 "/>
      <polygon id="_121" class="fil116" points="114321.92,14643.26 114389.68,14717.4 102842.48,25270.21 102774.72,25196.06 "/>
      <polygon id="_122" class="fil117" points="114367.09,14692.69 114434.85,14766.83 102887.65,25319.63 102819.89,25245.49 "/>
      <polygon id="_123" class="fil118" points="114412.26,14742.11 114480.02,14816.26 102932.82,25369.06 102865.07,25294.92 "/>
      <polygon id="_124" class="fil119" points="114457.43,14791.54 114525.19,14865.69 102978,25418.49 102910.24,25344.35 "/>
      <polygon id="_125" class="fil120" points="114502.61,14840.97 114570.36,14915.11 103023.17,25467.92 102955.41,25393.78 "/>
      <polygon id="_126" class="fil121" points="114547.78,14890.4 114615.54,14964.54 103068.34,25517.35 103000.58,25443.21 "/>
      <polygon id="_127" class="fil122" points="114592.95,14939.83 114660.71,15013.97 103113.51,25566.78 103045.76,25492.63 "/>
      <polygon id="_128" class="fil123" points="114638.12,14989.26 114705.88,15063.4 103158.69,25616.2 103090.93,25542.06 "/>
      <polygon id="_129" class="fil124" points="114683.29,15038.69 114751.05,15112.83 103203.85,25665.63 103136.1,25591.49 "/>
      <polygon id="_130" class="fil125" points="114728.46,15088.11 114796.22,15162.26 103249.03,25715.06 103181.27,25640.92 "/>
      <polygon id="_131" class="fil126" points="114773.64,15137.54 114841.39,15211.69 103294.2,25764.49 103226.44,25690.35 "/>
      <polygon id="_132" class="fil127" points="114818.81,15186.97 114886.57,15261.11 103339.37,25813.92 103271.61,25739.78 "/>
      <polygon id="_133" class="fil128" points="114863.98,15236.4 114931.74,15310.54 103384.54,25863.35 103316.79,25789.2 "/>
      <polygon id="_134" class="fil129" points="114909.15,15285.83 114976.91,15359.97 103429.72,25912.78 103361.96,25838.63 "/>
      <polygon id="_135" class="fil130" points="114954.33,15335.26 115022.08,15409.4 103474.89,25962.2 103407.13,25888.06 "/>
      <polygon id="_136" class="fil131" points="114999.5,15384.69 115067.26,15458.83 103520.06,26011.63 103452.3,25937.49 "/>
      <polygon id="_137" class="fil132" points="115044.67,15434.11 115112.43,15508.26 103565.23,26061.06 103497.47,25986.92 "/>
      <polygon id="_138" class="fil133" points="115089.84,15483.54 115157.6,15557.69 103610.41,26110.49 103542.65,26036.35 "/>
      <polygon id="_139" class="fil134" points="115135.01,15532.97 115202.77,15607.11 103655.57,26159.92 103587.82,26085.78 "/>
      <polygon id="_140" class="fil135" points="115180.19,15582.4 115247.94,15656.54 103700.75,26209.35 103632.99,26135.2 "/>
      <polygon id="_141" class="fil136" points="115225.36,15631.83 115293.11,15705.97 103745.92,26258.78 103678.16,26184.63 "/>
      <polygon id="_142" class="fil137" points="115270.53,15681.26 115338.29,15755.4 103791.09,26308.2 103723.33,26234.06 "/>
      <polygon id="_143" class="fil138" points="115315.7,15730.69 115383.46,15804.83 103836.26,26357.63 103768.5,26283.49 "/>
      <polygon id="_144" class="fil139" points="115360.87,15780.11 115428.63,15854.26 103881.44,26407.06 103813.68,26332.92 "/>
      <polygon id="_145" class="fil140" points="115406.04,15829.54 115473.8,15903.69 103926.61,26456.49 103858.85,26382.35 "/>
      <polygon id="_146" class="fil141" points="115451.22,15878.97 115518.98,15953.11 103971.78,26505.92 103904.02,26431.78 "/>
      <polygon id="_147" class="fil142" points="115496.39,15928.4 115564.15,16002.54 104016.95,26555.35 103949.19,26481.2 "/>
      <polygon id="_148" class="fil143" points="115541.56,15977.83 115609.32,16051.97 104062.12,26604.78 103994.37,26530.63 "/>
      <polygon id="_149" class="fil144" points="115586.73,16027.26 115654.49,16101.4 104107.3,26654.2 104039.54,26580.06 "/>
      <polygon id="_150" class="fil145" points="115631.91,16076.69 115699.66,16150.83 104152.47,26703.63 104084.71,26629.49 "/>
      <polygon id="_151" class="fil146" points="115677.07,16126.11 115744.83,16200.26 104197.64,26753.06 104129.88,26678.92 "/>
      <polygon id="_152" class="fil147" points="115722.25,16175.54 115790.01,16249.69 104242.81,26802.49 104175.06,26728.35 "/>
      <polygon id="_153" class="fil148" points="115767.42,16224.97 115835.18,16299.11 104287.98,26851.92 104220.22,26777.78 "/>
      <polygon id="_154" class="fil149" points="115812.59,16274.4 115880.35,16348.54 104333.15,26901.35 104265.4,26827.2 "/>
      <polygon id="_155" class="fil150" points="115857.76,16323.83 115925.52,16397.97 104378.33,26950.78 104310.57,26876.63 "/>
      <polygon id="_156" class="fil151" points="115902.94,16373.26 115970.69,16447.4 104423.5,27000.2 104355.74,26926.06 "/>
      <polygon id="_157" class="fil152" points="115948.11,16422.69 116015.87,16496.83 104468.67,27049.63 104400.91,26975.49 "/>
      <polygon id="_158" class="fil153" points="115993.28,16472.11 116061.04,16546.26 104513.84,27099.06 104446.09,27024.92 "/>
      <polygon id="_159" class="fil154" points="116038.45,16521.54 116106.21,16595.69 104559.02,27148.49 104491.26,27074.35 "/>
      <polygon id="_160" class="fil155" points="116083.63,16570.97 116151.38,16645.11 104604.19,27197.92 104536.43,27123.78 "/>
      <polygon id="_161" class="fil156" points="116128.8,16620.4 116196.56,16694.54 104649.36,27247.35 104581.6,27173.2 "/>
      <polygon id="_162" class="fil157" points="116173.97,16669.83 116241.72,16743.97 104694.53,27296.78 104626.77,27222.63 "/>
      <polygon id="_163" class="fil158" points="116219.14,16719.26 116286.9,16793.4 104739.7,27346.2 104671.94,27272.06 "/>
      <polygon id="_164" class="fil159" points="116264.31,16768.69 116332.07,16842.83 104784.87,27395.63 104717.12,27321.49 "/>
      <polygon id="_165" class="fil160" points="116309.48,16818.11 116377.24,16892.26 104830.05,27445.06 104762.29,27370.92 "/>
      <polygon id="_166" class="fil161" points="116354.66,16867.54 116422.41,16941.69 104875.22,27494.49 104807.46,27420.35 "/>
      <polygon id="_167" class="fil162" points="116399.83,16916.97 116467.59,16991.11 104920.39,27543.92 104852.63,27469.78 "/>
      <polygon id="_168" class="fil163" points="116445,16966.4 116512.76,17040.54 104965.56,27593.35 104897.8,27519.2 "/>
      <polygon id="_169" class="fil164" points="116490.17,17015.83 116557.93,17089.97 105010.74,27642.78 104942.98,27568.63 "/>
      <polygon id="_170" class="fil165" points="116535.34,17065.26 116603.1,17139.4 105055.91,27692.2 104988.15,27618.06 "/>
      <polygon id="_171" class="fil166" points="116580.52,17114.69 116648.27,17188.83 105101.08,27741.63 105033.32,27667.49 "/>
      <polygon id="_172" class="fil167" points="116625.69,17164.11 116693.44,17238.26 105146.25,27791.06 105078.49,27716.92 "/>
      <polygon id="_173" class="fil168" points="116670.86,17213.54 116738.62,17287.69 105191.42,27840.49 105123.67,27766.35 "/>
      <polygon id="_174" class="fil169" points="116716.03,17262.97 116783.79,17337.11 105236.59,27889.92 105168.83,27815.78 "/>
      <polygon id="_175" class="fil170" points="116761.2,17312.4 116828.96,17386.54 105281.77,27939.35 105214.01,27865.2 "/>
      <polygon id="_176" class="fil171" points="116806.37,17361.83 116874.13,17435.97 105326.94,27988.78 105259.18,27914.63 "/>
      <polygon id="_177" class="fil171" points="116851.55,17411.26 116919.31,17485.4 105372.11,28038.2 105304.35,27964.06 "/>
      <polygon id="_178" class="fil172" points="116896.72,17460.69 116964.48,17534.83 105417.28,28087.63 105349.52,28013.49 "/>
      <polygon id="_179" class="fil173" points="116941.89,17510.11 117009.65,17584.26 105462.45,28137.06 105394.7,28062.92 "/>
      <polygon id="_180" class="fil174" points="116987.06,17559.54 117054.82,17633.69 105507.63,28186.49 105439.87,28112.35 "/>
      <polygon id="_181" class="fil175" points="117032.24,17608.97 117099.99,17683.11 105552.8,28235.92 105485.04,28161.78 "/>
      <polygon id="_182" class="fil175" points="117077.41,17658.4 117145.17,17732.54 105597.97,28285.35 105530.21,28211.2 "/>
      <polygon id="_183" class="fil176" points="117122.58,17707.83 117190.34,17781.97 105643.14,28334.78 105575.39,28260.63 "/>
      <polygon id="_184" class="fil177" points="117167.75,17757.26 117235.51,17831.4 105688.31,28384.2 105620.56,28310.06 "/>
      <polygon id="_185" class="fil178" points="117212.92,17806.69 117280.68,17880.83 105733.48,28433.63 105665.73,28359.49 "/>
      <polygon id="_186" class="fil179" points="117258.09,17856.11 117325.85,17930.26 105778.66,28483.06 105710.9,28408.92 "/>
      <polygon id="_187" class="fil180" points="117303.27,17905.54 117371.02,17979.69 105823.83,28532.49 105756.07,28458.35 "/>
      <polygon id="_188" class="fil180" points="117348.44,17954.97 117416.2,18029.11 105869,28581.92 105801.24,28507.78 "/>
      <polygon id="_189" class="fil181" points="117393.61,18004.4 117461.37,18078.54 105914.17,28631.35 105846.42,28557.2 "/>
      <polygon id="_190" class="fil182" points="117438.78,18053.83 117506.54,18127.97 105959.35,28680.78 105891.59,28606.63 "/>
      <polygon id="_191" class="fil183" points="117483.96,18103.26 117551.71,18177.4 106004.52,28730.2 105936.76,28656.06 "/>
      <polygon id="_192" class="fil184" points="117529.13,18152.68 117596.89,18226.83 106049.69,28779.63 105981.93,28705.49 "/>
      <polygon id="_193" class="fil184" points="117574.3,18202.11 117642.06,18276.26 106094.86,28829.06 106027.1,28754.92 "/>
      <polygon id="_194" class="fil185" points="117619.47,18251.54 117687.23,18325.68 106140.04,28878.49 106072.28,28804.35 "/>
      <polygon id="_195" class="fil186" points="117664.64,18300.97 117732.4,18375.11 106185.2,28927.92 106117.45,28853.78 "/>
      <polygon id="_196" class="fil187" points="117709.81,18350.4 117777.57,18424.54 106230.38,28977.35 106162.62,28903.2 "/>
      <polygon id="_197" class="fil188" points="117754.99,18399.83 117822.74,18473.97 106275.55,29026.78 106207.79,28952.63 "/>
      <polygon id="_198" class="fil189" points="117800.16,18449.26 117867.92,18523.4 106320.72,29076.2 106252.96,29002.06 "/>
      <polygon id="_199" class="fil190" points="117845.33,18498.68 117913.09,18572.83 106365.89,29125.63 106298.13,29051.49 "/>
      <polygon id="_200" class="fil191" points="117890.5,18548.11 117958.26,18622.25 106411.07,29175.06 106343.31,29100.92 "/>
      <polygon id="_201" class="fil192" points="117935.67,18597.54 118003.43,18671.68 106456.24,29224.49 106388.48,29150.35 "/>
      <polygon id="_202" class="fil193" points="117980.85,18646.97 118048.61,18721.11 106501.41,29273.92 106433.65,29199.77 "/>
      <polygon id="_203" class="fil193" points="118026.02,18696.4 118093.78,18770.54 106546.58,29323.35 106478.82,29249.2 "/>
      <polygon id="_204" class="fil194" points="118071.19,18745.83 118138.95,18819.97 106591.75,29372.77 106524,29298.63 "/>
      <polygon id="_205" class="fil195" points="118116.36,18795.25 118184.12,18869.4 106636.93,29422.2 106569.17,29348.06 "/>
      <polygon id="_206" class="fil196" points="118161.54,18844.68 118229.29,18918.83 106682.1,29471.63 106614.34,29397.49 "/>
      <polygon id="_207" class="fil197" points="118206.7,18894.11 118274.46,18968.25 106727.27,29521.06 106659.51,29446.92 "/>
      <polygon id="_208" class="fil198" points="118251.88,18943.54 118319.64,19017.68 106772.44,29570.49 106704.69,29496.35 "/>
      <polygon id="_209" class="fil199" points="118297.05,18992.97 118364.81,19067.11 106817.61,29619.92 106749.85,29545.77 "/>
      <polygon id="_210" class="fil200" points="118342.22,19042.4 118409.98,19116.54 106862.78,29669.34 106795.03,29595.2 "/>
      <polygon id="_211" class="fil201" points="118387.39,19091.82 118455.15,19165.97 106907.96,29718.77 106840.2,29644.63 "/>
      <polygon id="_212" class="fil202" points="118432.57,19141.25 118500.32,19215.4 106953.13,29768.2 106885.37,29694.06 "/>
      <polygon id="_213" class="fil203" points="118477.74,19190.68 118545.5,19264.82 106998.3,29817.63 106930.54,29743.49 "/>
      <polygon id="_214" class="fil204" points="118522.91,19240.11 118590.67,19314.25 107043.47,29867.06 106975.72,29792.92 "/>
      <polygon id="_215" class="fil205" points="118568.08,19289.54 118635.84,19363.68 107088.65,29916.49 107020.89,29842.34 "/>
      <polygon id="_216" class="fil206" points="118613.26,19338.97 118681.01,19413.11 107133.81,29965.92 107066.06,29891.77 "/>
      <polygon id="_217" class="fil207" points="118658.43,19388.4 118726.19,19462.54 107178.99,30015.34 107111.23,29941.2 "/>
      <polygon id="_218" class="fil208" points="118703.6,19437.82 118771.35,19511.97 107224.16,30064.77 107156.4,29990.63 "/>
      <polygon id="_219" class="fil209" points="118748.77,19487.25 118816.53,19561.39 107269.33,30114.2 107201.57,30040.06 "/>
      <polygon id="_220" class="fil210" points="118793.94,19536.68 118861.7,19610.82 107314.5,30163.63 107246.75,30089.49 "/>
      <polygon id="_221" class="fil211" points="118839.11,19586.11 118906.87,19660.25 107359.68,30213.06 107291.92,30138.91 "/>
      <polygon id="_222" class="fil212" points="118884.29,19635.54 118952.04,19709.68 107404.85,30262.49 107337.09,30188.34 "/>
      <polygon id="_223" class="fil212" points="118929.46,19684.97 118997.22,19759.11 107450.02,30311.91 107382.26,30237.77 "/>
      <polygon id="_224" class="fil212" points="118974.63,19734.39 119042.39,19808.54 107495.19,30361.34 107427.43,30287.2 "/>
      <polygon id="_225" class="fil213" points="119019.8,19783.82 119087.56,19857.97 107540.37,30410.77 107472.61,30336.63 "/>
      <polygon id="_226" class="fil213" points="119064.97,19833.25 119132.73,19907.39 107585.54,30460.2 107517.78,30386.06 "/>
      <polygon id="_227" class="fil214" points="119110.15,19882.68 119177.9,19956.82 107630.71,30509.63 107562.95,30435.49 "/>
      <polygon id="_228" class="fil214" points="119155.32,19932.11 119223.07,20006.25 107675.88,30559.06 107608.12,30484.91 "/>
      <polygon id="_229" class="fil215" points="119200.49,19981.54 119268.25,20055.68 107721.05,30608.48 107653.3,30534.34 "/>
      <polygon id="_230" class="fil215" points="119245.66,20030.96 119313.42,20105.11 107766.22,30657.91 107698.46,30583.77 "/>
      <polygon id="_231" class="fil216" points="119290.83,20080.39 119358.59,20154.54 107811.4,30707.34 107743.64,30633.2 "/>
      <polygon id="_232" class="fil216" points="119336,20129.82 119403.76,20203.96 107856.57,30756.77 107788.81,30682.63 "/>
      <polygon id="_233" class="fil216" points="119381.18,20179.25 119448.94,20253.39 107901.74,30806.2 107833.98,30732.06 "/>
      <polygon id="_234" class="fil217" points="119426.35,20228.68 119494.11,20302.82 107946.91,30855.63 107879.15,30781.48 "/>
      <polygon id="_235" class="fil217" points="119471.52,20278.11 119539.28,20352.25 107992.08,30905.06 107924.33,30830.91 "/>
      <polygon id="_236" class="fil217" points="119516.69,20327.54 119584.45,20401.68 108037.26,30954.48 107969.5,30880.34 "/>
      <polygon id="_237" class="fil218" points="119561.87,20376.96 119629.62,20451.11 108082.43,31003.91 108014.67,30929.77 "/>
      <polygon id="_238" class="fil218" points="119607.04,20426.39 119674.8,20500.54 108127.6,31053.34 108059.84,30979.2 "/>
      <polygon id="_239" class="fil218" points="119652.21,20475.82 119628.82,20450.23 108081.62,31003.03 108105.02,31028.63 "/>
     </g>
    </g>
    <g style="clip-path:url(#id1)">
     <g>
      <g>
       <rect class="fil219" x="47268.98" y="1927.1" width="6198.55" height="17435.23"/>
       <g>
        <rect class="fil220" x="53447.95" y="1927.1" width="6198.55" height="17435.23"/>
        <rect class="fil172" x="59637.53" y="1917.03" width="6198.55" height="17435.23"/>
        <rect class="fil221" x="65811.61" y="1927.1" width="6198.55" height="17435.23"/>
       </g>
      </g>
     </g>
    </g>
    <polygon class="fil0" points="110787.82,11210.39 110806.11,17558.34 116985.96,17558.34 116985.96,22202.37 110806.11,22202.37 110806.11,28513.17 106106.04,28513.17 106106.04,22202.37 100038.83,22202.37 100038.83,17558.34 106106.04,17558.34 106106.04,11210.39 "/>
    <g>
     <g>
     </g>
     <g style="clip-path:url(#id2)">
      <g>
       <rect class="fil172" x="4687.6" y="2300.41" width="55511.46" height="58578.51"/>
       <rect class="fil221" x="60193.61" y="2300.41" width="55511.46" height="58578.51"/>
       <rect class="fil220" x="4687.6" y="60765.91" width="55511.46" height="58578.51"/>
       <rect class="fil219" x="60223.63" y="60765.91" width="55511.46" height="58578.51"/>
      </g>
     </g>
     <path class="fil0" d="M84768.96 95775.33l19399.98 19487.15c1928.38,-5244.68 5884.89,-9508.22 10918.43,-11844.35l-18937.99 -19024.19c13635.2,-20549.65 11524.74,-45419.02 -6662.63,-62928.4 -2076.57,-1999.08 -5849.06,-4619.97 -8360.5,-6137.68 -5876.17,-3549.72 -14788.74,-6542.53 -22768.59,-6542.53 -11763.96,0 -19842.61,2745.83 -28392.94,8407.95l-6893.15 5575.92 -5460.66 6717.84c-5752.2,8664.62 -8523.21,16672.56 -8523.21,28560.5 0,10010.9 4064.02,19504.59 9157.61,26829.7 4781.71,6877.65 12488.44,12723.8 20251.34,15994.58 15728.22,6627.76 32024.99,4441.75 46272.31,-5096.49zm4059.18 -40374.83c0,5573.99 -783.55,9271.9 -2399.09,13328.17 -888.16,2224.75 -1535.15,3231.07 -2695.47,5133.3 -5040.31,8258.8 -15759.22,14663.8 -25399.16,14663.8 -9296.11,0 -17619.8,-3076.1 -23921.16,-9377.47 -1973.9,-1973.9 -4621.91,-5753.17 -5901.35,-8307.22 -1654.28,-3303.71 -3185.55,-7917.87 -3185.55,-12882.64 0,-9869.49 2599.58,-17121.96 9206.03,-23728.42 6620.02,-6620.98 13870.56,-9206.04 23753.6,-9206.04 6632.61,0 14764.52,3209.76 19160.76,7321.24l2186.98 1873.17c4964.77,4964.77 9194.41,14028.43 9194.41,21182.11z"/>
     <g>
     </g>
     <g style="clip-path:url(#id3)">
      <g>
       <g>
        <rect class="fil219" transform="matrix(97.7826 -99.4745 99.4745 97.7826 100867 112593)" width="29.92" height="81.78"/>
        <g>
         <rect class="fil220" transform="matrix(97.7826 -99.4745 99.4745 97.7826 103783 109627)" width="29.92" height="81.78"/>
         <rect class="fil172" transform="matrix(97.7826 -99.4745 99.4745 97.7826 106700 106650)" width="29.92" height="81.78"/>
         <rect class="fil221" transform="matrix(97.7826 -99.4745 99.4745 97.7826 109618 103691)" width="29.92" height="81.78"/>
        </g>
       </g>
      </g>
     </g>
     <path class="fil0" d="M107945.74 119051.83c1472.89,-5507.06 5535.92,-9954.6 10803.7,-11960.05l-2557.55 -2569.65c-5034.09,2335.96 -8990.05,6600.09 -10919.15,11844.6l2673 2685.1z"/>
    </g>
   </g>
  </g>
 </g>
</svg>
