<svg width="35" height="32" viewBox="0 0 35 32" fill="none" xmlns="http://www.w3.org/2000/svg">
<path d="M7.08235 0C5.74067 0 4.45394 0.495797 3.50522 1.37832C2.55651 2.26085 2.02353 3.4578 2.02353 4.70588V15.5426C2.64772 15.0632 3.32624 14.6485 4.04706 14.3059V4.70588C4.04706 3.95704 4.36685 3.23886 4.93608 2.70935C5.5053 2.17983 6.27734 1.88235 7.08235 1.88235H10.1176V4.70588C10.1176 5.45473 10.4374 6.1729 11.0067 6.70242C11.5759 7.23193 12.3479 7.52941 13.1529 7.52941H26.3059V19.7647C26.3059 20.5136 25.9861 21.2317 25.4169 21.7612C24.8476 22.2908 24.0756 22.5882 23.2706 22.5882H20.1908C20.2513 23.2144 20.2513 23.8444 20.1908 24.4706H23.2706C24.6123 24.4706 25.899 23.9748 26.8477 23.0923C27.7964 22.2097 28.3294 21.0128 28.3294 19.7647V4.70588C28.3294 3.4578 27.7964 2.26085 26.8477 1.37832C25.899 0.495797 24.6123 0 23.2706 0H7.08235ZM26.3059 30.1176H17.6917C18.2037 29.5398 18.6509 28.9092 19.0212 28.2353H26.3059C27.9159 28.2353 29.46 27.6403 30.5984 26.5813C31.7369 25.5223 32.3765 24.0859 32.3765 22.5882V10.3529C32.3768 9.7688 32.1824 9.19894 31.8199 8.7219C31.4575 8.24486 30.945 7.88413 30.3529 7.68941V5.74118C31.4956 5.95815 32.5226 6.5357 33.2601 7.37609C33.9975 8.21648 34.4002 9.26809 34.4 10.3529V22.5882C34.4 24.5852 33.5472 26.5003 32.0293 27.9123C30.5113 29.3244 28.4526 30.1176 26.3059 30.1176ZM26.3059 4.70588V5.64706H13.1529C12.8846 5.64706 12.6273 5.5479 12.4375 5.37139C12.2478 5.19489 12.1412 4.9555 12.1412 4.70588V1.88235H23.2706C24.0756 1.88235 24.8476 2.17983 25.4169 2.70935C25.9861 3.23886 26.3059 3.95704 26.3059 4.70588ZM18.2118 23.5294C18.2118 25.776 17.2524 27.9305 15.5447 29.519C13.837 31.1076 11.5209 32 9.10588 32C6.69085 32 4.37474 31.1076 2.66705 29.519C0.959367 27.9305 0 25.776 0 23.5294C0 21.2829 0.959367 19.1283 2.66705 17.5398C4.37474 15.9513 6.69085 15.0588 9.10588 15.0588C11.5209 15.0588 13.837 15.9513 15.5447 17.5398C17.2524 19.1283 18.2118 21.2829 18.2118 23.5294ZM10.1176 19.7647C10.1176 19.5151 10.0111 19.2757 9.82131 19.0992C9.63157 18.9227 9.37422 18.8235 9.10588 18.8235C8.83755 18.8235 8.5802 18.9227 8.39046 19.0992C8.20072 19.2757 8.09412 19.5151 8.09412 19.7647V22.5882H5.05882C4.79049 22.5882 4.53314 22.6874 4.3434 22.8639C4.15366 23.0404 4.04706 23.2798 4.04706 23.5294C4.04706 23.779 4.15366 24.0184 4.3434 24.1949C4.53314 24.3714 4.79049 24.4706 5.05882 24.4706H8.09412V27.2941C8.09412 27.5437 8.20072 27.7831 8.39046 27.9596C8.5802 28.1361 8.83755 28.2353 9.10588 28.2353C9.37422 28.2353 9.63157 28.1361 9.82131 27.9596C10.0111 27.7831 10.1176 27.5437 10.1176 27.2941V24.4706H13.1529C13.4213 24.4706 13.6786 24.3714 13.8684 24.1949C14.0581 24.0184 14.1647 23.779 14.1647 23.5294C14.1647 23.2798 14.0581 23.0404 13.8684 22.8639C13.6786 22.6874 13.4213 22.5882 13.1529 22.5882H10.1176V19.7647Z" fill="url(#paint0_linear_121_103)"/>
<defs>
<linearGradient id="paint0_linear_121_103" x1="17.2" y1="0" x2="17.2" y2="32" gradientUnits="userSpaceOnUse">
<stop stop-color="#034AA6"/>
<stop offset="1" stop-color="#3F88DD"/>
</linearGradient>
</defs>
</svg>
